<svg style="display: none;" width="176" height="160" viewBox="0 0 176 160" xmlns="http://www.w3.org/2000/svg" xmlns:xlink="http://www.w3.org/1999/xlink"><view id="icon-arrow" viewBox="152 72 24 24"/><svg width="24" height="24" viewBox="0 0 24 24" x="152" y="72"><path d="M12.068.016L8.35 3.714 13.615 9H0v6h13.614L8.32 20.317l3.717 3.7L24 12z"/></svg><view id="icon-arrow-2" viewBox="128 24 24 24"/><svg width="24" height="24" viewBox="0 0 24 24" x="128" y="24"><path d="M5 3l3.057-3L20 12 8.057 24 5 21l9-9z"/></svg><view id="icon-check-mark" viewBox="152 96 24 24"/><svg width="24" height="24" viewBox="0 0 24 24" x="152" y="96"><path d="M20.285 2L9 13.567l-5.286-5.01L0 12.27 9 21 24 5.715z"/></svg><view id="icon-circle" viewBox="24 40 24 24"/><svg width="24" height="24" viewBox="0 0 24 24" x="24" y="40"><circle cx="12" cy="12" r="12"/></svg><view id="icon-cube" viewBox="48 40 24 24"/><svg width="24" height="24" viewBox="0 0 24 24" x="48" y="40"><path d="M12 0L1 6v12.13L12 24l11-5.87V6.066L12 0zm9 11.623l-3 1.57v-3.26l3-1.602v3.293zM8 10.97l3 1.624v3.186l-3-1.614V10.97zm.9-1.8l2.986-1.603 3.132 1.688-3.014 1.608L8.9 9.17zM13 12.6l3-1.6v3.238l-3 1.57V12.6zm4.138-4.475l-3.14-1.69L16.8 4.93l3.11 1.716-2.772 1.48zM14.714 3.78L11.89 5.297l-2.73-1.47 2.835-1.546 2.72 1.5zm-7.65 1.19l2.712 1.46-2.973 1.596-2.67-1.456 2.932-1.6zM6 9.878v3.204l-3-1.636V8.23l3 1.648zM3 13.72l3 1.637v3.185l-3-1.61v-3.21zm5 5.89v-3.17l3 1.614V21.2l-3-1.59zm5-1.546l3-1.57V19.6l-3 1.6v-3.136zm5 .468V15.45l3-1.57v3.05l-3 1.602z"/></svg><view id="icon-eye" viewBox="80 0 24 24"/><svg width="24" height="24" viewBox="0 0 24 24" x="80"><path d="M15 12a3 3 0 1 1-5.943-.58c1.474.54 2.927-.883 2.405-2.372A3 3 0 0 1 15 12zm-2.985-7C4.445 5 0 11.55 0 11.55S4.835 19 12.015 19C19.748 19 24 11.55 24 11.55S19.71 5 12.015 5zM12 17a5 5 0 1 1 0-10 5 5 0 0 1 0 10z"/></svg><view id="icon-folder" viewBox="80 24 24 24"/><svg width="24" height="24" viewBox="0 0 24 24" x="80" y="24"><path d="M7.972 2H1l.714 5h2.02l-.428-3H7c1.112 1.388 1.952 2 4.277 2h9.283l-.2 1h2.04l.6-3H11.277C9.3 4 9.237 3.583 7.972 2zM24 9H0l2 13h20l2-13z"/></svg><view id="icon-fullscreen" viewBox="0 64 24 24"/><svg width="24" height="24" viewBox="0 0 24 24" y="64"><path d="M6.426 10.668L2.88 7.12 0 10V0h10L7.12 2.88l3.548 3.546-4.242 4.242zm11.148 2.664l3.547 3.547L24 14v10H14l2.88-2.88-3.548-3.546 4.242-4.242zm-6.906 4.242L7.12 21.12 10 24H0V14l2.88 2.88 3.546-3.548 4.242 4.242zm2.664-11.148L16.88 2.88 14 0h10v10l-2.88-2.88-3.546 3.548-4.242-4.242z"/></svg><view id="icon-gear" viewBox="24 64 24 24"/><svg width="24" height="24" viewBox="0 0 24 24" x="24" y="64"><path d="M24 13.616v-3.232c-1.65-.587-2.694-.752-3.22-2.02-.526-1.27.1-2.134.848-3.707l-2.285-2.285c-1.56.742-2.433 1.375-3.707.847-1.27-.527-1.436-1.577-2.02-3.22h-3.232c-.582 1.635-.75 2.692-2.02 3.22-1.27.527-2.132-.1-3.707-.848L2.372 4.657c.745 1.568 1.375 2.434.847 3.707-.528 1.27-1.585 1.438-3.22 2.02v3.232c1.632.58 2.692.75 3.22 2.02.53 1.28-.115 2.165-.848 3.706l2.285 2.286c1.562-.743 2.434-1.375 3.707-.847 1.27.527 1.437 1.58 2.02 3.22h3.232c.582-1.636.75-2.69 2.027-3.222 1.263-.524 2.12.1 3.7.85l2.284-2.285c-.744-1.563-1.375-2.433-.848-3.706.526-1.27 1.587-1.44 3.22-2.02zM12 16a4 4 0 1 1 0-8 4 4 0 0 1 0 8z"/></svg><view id="icon-magic-1" viewBox="48 64 24 24"/><svg width="24" height="24" viewBox="0 0 24 24" x="48" y="64"><path d="M4.908 2.08L2.08 4.91 21.172 24 24 21.172 4.908 2.082zm17.678 19.092l-1.414 1.414L7.03 8.444 8.442 7.03l14.143 14.142zM8.76 2.6a3.87 3.87 0 0 1 2.572 2.572A3.877 3.877 0 0 1 13.905 2.6 3.875 3.875 0 0 1 11.332.025 3.87 3.87 0 0 1 8.76 2.6zM3.412 9.552A5.132 5.132 0 0 1 0 12.966a5.13 5.13 0 0 1 3.412 3.41 5.133 5.133 0 0 1 3.412-3.41 5.138 5.138 0 0 1-3.412-3.413zm9.553-3.165a2.736 2.736 0 0 1 1.82 1.82 2.738 2.738 0 0 1 1.818-1.82 2.738 2.738 0 0 1-1.82-1.82 2.74 2.74 0 0 1-1.818 1.82zM17.39 0a3.126 3.126 0 0 1-2.074 2.076 3.128 3.128 0 0 1 2.077 2.077 3.13 3.13 0 0 1 2.074-2.077A3.13 3.13 0 0 1 17.39 0z"/></svg><view id="icon-magic-2" viewBox="72 64 24 24"/><svg width="24" height="24" viewBox="0 0 24 24" x="72" y="64"><path d="M8.617 5.795L5.79 8.623 21.17 24 24 21.176 8.617 5.796zm2.12 6.362L7.202 8.622l1.412-1.414 3.535 3.535-1.414 1.414zm-5.022 3.44L4.37 11.232 0 9.906l3.11-3.35-1.034-4.453 4.455 1.02L9.87 0l1.343 4.363 4.37 1.328-2.042 2.2-.707-.708.93-1-2.84-.862-.51-.154-.156-.508-.873-2.834-2.17 2.03-.388.363-.517-.12-2.898-.66.674 2.893.12.518-.362.39-2.022 2.176 2.84.862.508.154.156.508.873 2.835.986-.923.708.708-2.18 2.038z"/></svg><view id="icon-magic-3" viewBox="104 0 24 24"/><svg width="24" height="24" viewBox="0 0 24 24" x="104"><path d="M6.215 15.873a4.673 4.673 0 0 0-3.107 3.107A4.682 4.682 0 0 0 0 15.872a4.672 4.672 0 0 0 3.106-3.106 4.684 4.684 0 0 0 3.11 3.107zm-2.49-14.15A2.588 2.588 0 0 1 2 0 2.593 2.593 0 0 1 .28 1.723 2.6 2.6 0 0 1 2 3.445c.252-.825.898-1.47 1.724-1.722zM5.56 3.905l.733.732c1.63-1.36 3.79-2.33 5.73-2.337-1.834.458-3.646 1.663-4.948 3.12l1.653 1.653C12.488 2.708 19.573 1.587 24 4 17.45-1.092 9.415.713 5.56 3.905zM3.815 4.987L7.35 8.522l12.664 12.652L17.188 24 .985 7.815l2.83-2.828zM3.812 6.4L2.398 7.813l3.537 3.537L7.35 9.938 3.812 6.4zM10.22 8.52a3.164 3.164 0 0 1 2.1 2.1 3.168 3.168 0 0 1 2.102-2.1 3.166 3.166 0 0 1-2.1-2.1 3.162 3.162 0 0 1-2.102 2.1z"/></svg><view id="icon-magic-4" viewBox="104 24 24 24"/><svg width="24" height="24" viewBox="0 0 24 24" x="104" y="24"><path d="M12.108 11.488c.263.168.392.225.69.306-.236.244-1.14.244-1.378 0 .29-.086.43-.148.688-.306zm3.988-10.37C15.59 2.13 15 3.478 14.72 4.92c.308.256.585.56.817.92.174-1.72.955-3.412 1.54-4.553.35-.686.06-1.287-.6-1.287-.32 0-.727.14-1.19.48-1.155.85-2.056 2.033-2.68 3.52.32.04.634.12.933.234.862-1.938 2.12-2.89 2.556-3.116zM8.573 5.852c.23-.36.507-.667.817-.925-.28-1.446-.87-2.795-1.377-3.81.657.34 1.796 1.417 2.557 3.12.3-.114.612-.194.932-.237-.624-1.487-1.525-2.67-2.68-3.52C8.358.14 7.95 0 7.633 0c-.66 0-.952.603-.6 1.287.584 1.143 1.367 2.838 1.54 4.565zm8.72 5.186c-.126.5-.343.97-.647 1.396.71.468.473 1.112-.664 1.514-2.23.788-5.74.8-7.965 0-1.152-.414-1.34-1.097-.573-1.564a4.077 4.077 0 0 1-.62-1.397C5.717 11.47 5 12.154 5 13.04c0 4.15 14 4.153 14 0 0-.854-.668-1.52-1.708-2.002zM6.48 10.225a7.63 7.63 0 0 1 1.202-.165c.005-.3.056-.595.15-.88a6.7 6.7 0 0 0-.805-.148c-.165-.02-.138-.28.03-.26.29.035.58.09.87.163.15-.348.366-.677.643-.972.01-.81.313-1.58.867-2.192.663-.73 1.618-1.152 2.622-1.152s1.958.42 2.62 1.153a3.31 3.31 0 0 1 .867 2.193c.284.303.504.64.654.997.322-.085.647-.148.97-.187.166-.02.193.24.03.26a6.855 6.855 0 0 0-.907.174c.09.275.137.56.143.85.465.023.917.08 1.31.17.16.037.11.293-.054.256a7.666 7.666 0 0 0-1.263-.166c-.143 2.047-2.262 3.337-4.37 3.337-2.186 0-4.23-1.35-4.37-3.33-.41.025-.807.08-1.155.158-.164.036-.218-.22-.055-.257zm2.302.648a5.55 5.55 0 0 1 1.17-.347l-.005-.076c-.4-.08-.85-.127-1.312-.143.02.193.07.383.147.566zm6.455.2a5.258 5.258 0 0 0-1.004-.29c-.067.313-.226.618-.475.785-.443.278-1.2-.08-1.647-.348-.45.27-1.2.627-1.646.348-.25-.168-.41-.474-.475-.783a5.4 5.4 0 0 0-1.09.323c.536.933 1.77 1.562 3.16 1.562 1.293 0 2.61-.57 3.177-1.597zm-4.384.105c.198 0 .46-.097.688-.206a.593.593 0 0 0 .333-.538c0-.23-.12-.44-.312-.55-.27-.157-.573-.295-.767-.295-.245 0-.375.495-.376.782 0 .322.126.806.436.806zm1.827-.206c.23.11.49.206.688.206.31 0 .438-.483.436-.806 0-.346-.158-.783-.376-.783-.195 0-.498.137-.77.293a.636.636 0 0 0-.31.55c0 .233.13.443.332.54zm2.8-.66a7.96 7.96 0 0 0-1.207.14l-.004.073c.336.056.708.165 1.08.31.068-.17.113-.345.13-.524zm-.085-.81c-.397.16-.782.355-1.142.582l.013.102a8.387 8.387 0 0 1 1.226-.136 1.94 1.94 0 0 0-.097-.548zm-6.558-.277c.415.162.816.36 1.192.59.082-.26.24-.51.454-.643.233-.13.524-.068.773.024.114-.215.38-.59.86-.59.474 0 .747.364.868.582.244-.087.526-.142.753-.016.215.135.373.385.455.646.35-.215.722-.4 1.106-.557-.21-.438-.508-.696-.71-.89.1-1.747-1.117-2.77-2.53-2.77-1.426 0-2.628 1.04-2.53 2.77-.202.193-.484.438-.693.855zm-.21.82c.464.014.92.06 1.328.14l.013-.104a7.282 7.282 0 0 0-1.233-.616 1.91 1.91 0 0 0-.11.58zM13.23 8.42c.293 0 .53-.327.53-.73s-.237-.73-.53-.73c-.292 0-.53.327-.53.73s.238.73.53.73zm4.6 14.382c-.992.806-3.38 1.198-5.79 1.198-2.457 0-4.937-.408-5.974-1.198 1.097-2.36.86-4.82.222-6.71 2.945 1.417 8.422 1.404 11.318-.053-.672 1.994-.884 4.275.223 6.762zm-1.44-.315c-.432-1.18-.73-3.436-.346-4.99l-.805.185c-.272 1.297-.118 3.554.386 5.014.18.04.626-.082.765-.21zM10.96 8.42c.293 0 .53-.327.53-.73s-.237-.73-.53-.73-.53.327-.53.73.237.73.53.73z"/></svg><view id="icon-magnifier" viewBox="104 48 24 24"/><svg width="24" height="24" viewBox="0 0 24 24" x="104" y="48"><path d="M21.172 24l-7.387-7.387A8.945 8.945 0 0 1 9 18a9 9 0 1 1 9-9 8.95 8.95 0 0 1-1.387 4.785L24 21.172 21.172 24zM9 16c3.86 0 7-3.14 7-7s-3.14-7-7-7-7 3.14-7 7 3.14 7 7 7z"/></svg><view id="icon-maximize" viewBox="0 88 24 24"/><svg width="24" height="24" viewBox="0 0 24 24" y="88"><path d="M24 13h-2v9h-9v2h11V13zM0 0h11v2H2v9H0V0zm20.622 7.62l-13 13L11 24H0V13l3.378 3.38 13-13L13 0h11v11l-3.378-3.38z"/></svg><view id="icon-menu" viewBox="24 88 24 24"/><svg width="24" height="24" viewBox="0 0 24 24" x="24" y="88"><path d="M13 6H0V2h13v4zm0 4H0v4h13v-4zm0 8H0v4h13v-4zm3-8l4 5.075L24 10h-8z"/></svg><view id="icon-menu-circle" viewBox="48 88 24 24"/><svg width="24" height="24" viewBox="0 0 24 24" x="48" y="88"><path d="M12 2c5.514 0 10 4.486 10 10s-4.486 10-10 10S2 17.514 2 12 6.486 2 12 2zm0-2C5.373 0 0 5.373 0 12s5.373 12 12 12 12-5.373 12-12S18.627 0 12 0zm6 17H6v-2h12v2zm0-4H6v-2h12v2zm0-4H6V7h12v2z"/></svg><view id="icon-minus" viewBox="72 88 24 24"/><svg width="24" height="24" viewBox="0 0 24 24" x="72" y="88"><path d="M0 9h24v6H0z"/></svg><view id="icon-paint-bucket" viewBox="96 88 24 24"/><svg width="24" height="24" viewBox="0 0 24 24" x="96" y="88"><path d="M22.38 0c-.343 0-.69.11-.985.334-.67.513-1.02 1.576-1.614 2.217-.77.83-2.23.45-3.563-.977-1.507 1.424-3.404 2.99-5.467 3.536l1.218 1.59c.56.096 1.375-.133 1.82-.543-.235.6-.65 1.054-1.24 1.304l.516.676c1.22 1.59-1.443 1.758-2.972 1.756-1.826 0-5.768-.39-5.768-1.39 0-1.112 4.627-1.632 5.895-1.612L8.957 5.146c-3.55.17-5.66 1.153-6.502 1.995-.293.294-.435.568-.435.783v1.06C.724 10.056 0 11.32 0 12.578c0 1.164.603 2.146 1.684 2.763.704.402 1.682.666 2.887.666 1.272 0 2.798-.302 4.515-1.033a1.5 1.5 0 0 1 1.418-1.975A1.495 1.495 0 0 1 12 14.5c0 .83-.67 1.5-1.5 1.5a1.48 1.48 0 0 1-.774-.22c-1.8.8-3.554 1.228-5.155 1.228-.936 0-1.8-.148-2.553-.422l-.002 3.667c0 .63.268 1.237.802 1.772C3.973 23.18 6.377 24 10.043 24c3.908 0 6.945-.946 8.254-2.255.46-.46.703-.972.703-1.492V8.85a33.65 33.65 0 0 1 1.875-1.272c-1.047-1.694-1.06-3.22.01-3.73.767-.367 1.83-.44 2.478-.937.418-.32.637-.803.637-1.292C24 .726 23.28 0 22.38 0zM2.02 14.357c-.65-.435-1.01-1.04-1.01-1.78 0-.728.362-1.5 1.013-2.218l-.002 3.997zM16 20.844a6.405 6.405 0 0 1-2 .562v-9.844a6.543 6.543 0 0 0 2-.516v9.798zm1.712-12.88l-2.75-3.54 1.29-.987L19.02 7l-1.31.964zm4.995-5.913a.535.535 0 0 1-.755-.1.538.538 0 0 1 .1-.757.54.54 0 1 1 .655.858z"/></svg><view id="icon-picture" viewBox="128 0 24 24"/><svg width="24" height="24" viewBox="0 0 24 24" x="128"><path d="M5 8.5a1.5 1.5 0 1 1 3 0 1.5 1.5 0 0 1-3 0zm9 .5l-2.52 4L9 11.04 5 17h14l-5-8zm8-4v14H2V5h20zm2-2H0v18h24V3z"/></svg><view id="icon-pin" viewBox="0 40 24 24"/><svg width="24" height="24" viewBox="0 0 24 24" y="40"><path d="M11 17h2v5l-2 2v-7zm3.57-12c0-2.903 2.36-3.09 2.43-5H7c.068 1.91 2.43 2.097 2.43 5C9.43 8.77 6 8.29 6 15h12c0-6.71-3.43-6.23-3.43-10z"/></svg><view id="icon-plus" viewBox="128 48 24 24"/><svg width="24" height="24" viewBox="0 0 24 24" x="128" y="48"><path d="M24 9h-9V0H9v9H0v6h9v9h6v-9h9z"/></svg><view id="icon-plus-2" viewBox="128 72 24 24"/><svg width="24" height="24" viewBox="0 0 24 24" x="128" y="72"><path d="M24 10H14V0h-4v10H0v4h10v10h4V14h10z"/></svg><view id="icon-resize-2" viewBox="0 112 24 24"/><svg width="24" height="24" viewBox="0 0 24 24" y="112"><path d="M16 0v2H8V0h8zm2 2h4v4h2V0h-6v2zM2 6V2h4V0H0v6h2zm22 2h-2v8h2V8zm-2 10v4h-4v2h6v-6h-2zM0 24h16V8H0v16z"/></svg><view id="icon-round-square" viewBox="24 112 24 24"/><svg width="24" height="24" viewBox="0 0 24 24" x="24" y="112"><path d="M24 3a3 3 0 0 0-3-3H3a3 3 0 0 0-3 3v18a3 3 0 0 0 3 3h18a3 3 0 0 0 3-3V3z"/></svg><view id="icon-round-square-2" viewBox="48 112 24 24"/><svg width="24" height="24" viewBox="0 0 24 24" x="48" y="112"><path d="M24 5a5 5 0 0 0-5-5H5a5 5 0 0 0-5 5v14a5 5 0 0 0 5 5h14a5 5 0 0 0 5-5V5z"/></svg><view id="icon-scroll" viewBox="72 112 24 24"/><svg width="24" height="24" viewBox="0 0 24 24" x="72" y="112"><path d="M12 0a8 8 0 0 0-8 8v8a8 8 0 0 0 16 0V8a8 8 0 0 0-8-8zm0 7.5a1.5 1.5 0 1 1 0-3 1.5 1.5 0 0 1 0 3z"/></svg><view id="icon-square" viewBox="96 112 24 24"/><svg width="24" height="24" viewBox="0 0 24 24" x="96" y="112"><path d="M24 0H0v24h24V0z"/></svg><view id="icon-square-circle" viewBox="120 112 24 24"/><svg version="1" width="24" height="24" viewBox="0 0 24 24" x="120" y="112"><circle cx="16" cy="16" r="8"/><path d="M15.75 6c.084 0 .166.01.25.013V0H0v16h5.75c0-5.523 4.477-10 10-10z"/></svg><view id="icon-squares-2x2" viewBox="152 0 24 24"/><svg width="24" height="24" viewBox="0 0 24 24" x="152"><path d="M11 11H0V0h11v11zm13 0H13V0h11v11zM11 24H0V13h11v11zm13 0H13V13h11v11z"/></svg><view id="icon-squares-3x3" viewBox="152 24 24 24"/><svg width="24" height="24" viewBox="0 0 24 24" x="152" y="24"><path d="M6 6H0V0h6v6zm9-6H9v6h6V0zm9 0h-6v6h6V0zM6 9H0v6h6V9zm9 0H9v6h6V9zm9 0h-6v6h6V9zM6 18H0v6h6v-6zm9 0H9v6h6v-6zm9 0h-6v6h6v-6z"/></svg><view id="icon-tools" viewBox="152 48 24 24"/><svg width="24" height="24" viewBox="0 0 24 24" x="152" y="48"><path d="M23.27 19.743L11.324 7.798a2.706 2.706 0 0 1-.783-2.115 5.278 5.278 0 0 0-1.528-4.146A5.248 5.248 0 0 0 5.29 0C4.78 0 4.273.072 3.783.216l3.17 3.17c.344 1.59-1.96 3.918-3.567 3.567l-3.17-3.17c-.144.492-.217 1-.217 1.51a5.264 5.264 0 0 0 5.684 5.25 2.698 2.698 0 0 1 2.113.783L19.743 23.27a2.494 2.494 0 0 0 3.527-3.527zM21.5 22.5a1 1 0 1 1 0-2 1 1 0 0 1 0 2zM13.565 7.21l5.327-5.317a2.98 2.98 0 0 1 2.113-.877c.764 0 1.53.292 2.113.877a2.99 2.99 0 0 1 .01 4.235L17.8 11.446l-1.038-1.04L21.83 5.35a.43.43 0 0 0-.002-.61.43.43 0 0 0-.61 0L16.15 9.796l-.89-.89 5.067-5.06a.432.432 0 0 0-.61-.61l-5.068 5.058-1.085-1.083zm-3.53 9.18l-5.227 5.186c-.227.23-.423.488-.574.774l-.3.58-2.1 1.07L1 23.166l1.025-2.146.58-.302c.286-.15.56-.33.79-.558l5.227-5.185 1.413 1.416z"/></svg><view id="icon-touch-move-down-3" viewBox="0 0 40 40"/><svg version="1" width="40" height="40" viewBox="0 -8 40 40"><path d="M20 .5c1.93 0 3.5 1.57 3.5 3.5S21.93 7.5 20 7.5 16.5 5.93 16.5 4 18.07.5 20 .5M20-1a5 5 0 1 0 0 10 5 5 0 0 0 0-10z"/><path d="M20-2c3.308 0 6 2.692 6 6s-2.692 6-6 6-6-2.692-6-6 2.692-6 6-6m0-1a7 7 0 1 0 0 14 7 7 0 0 0 0-14zM33 6.5c1.93 0 3.5 1.57 3.5 3.5s-1.57 3.5-3.5 3.5-3.5-1.57-3.5-3.5 1.57-3.5 3.5-3.5M33 5a5 5 0 1 0 0 10 5 5 0 0 0 0-10z"/><path d="M33 4c3.308 0 6 2.692 6 6s-2.692 6-6 6-6-2.692-6-6 2.692-6 6-6m0-1a7 7 0 1 0 0 14 7 7 0 0 0 0-14zM7 7.51c1.93 0 3.5 1.57 3.5 3.5s-1.57 3.5-3.5 3.5-3.5-1.57-3.5-3.5 1.57-3.5 3.5-3.5m0-1.5a5 5 0 1 0 0 10 5 5 0 0 0 0-10z"/><path d="M7 5.01c3.308 0 6 2.69 6 6s-2.692 6-6 6-6-2.693-6-6 2.692-6 6-6m0-1a7 7 0 1 0 0 14 7 7 0 0 0 0-14zM7.75 24.812V19h-1.5v5.812H3.81L7 28l3.19-3.188zM20.75 17.812V12h-1.5v5.812h-2.44L20 21l3.19-3.188zM33.75 23.812V18h-1.5v5.812h-2.44L33 27l3.19-3.188z"/></svg><view id="icon-touch-move-up-3" viewBox="40 0 40 40"/><svg version="1" width="40" height="40" viewBox="0 -8 40 40" x="40"><path d="M20 24.5c-1.93 0-3.5-1.57-3.5-3.5s1.57-3.5 3.5-3.5 3.5 1.57 3.5 3.5-1.57 3.5-3.5 3.5m0 1.5a5 5 0 1 0 0-10 5 5 0 0 0 0 10z"/><path d="M20 27c-3.308 0-6-2.692-6-6s2.692-6 6-6 6 2.692 6 6-2.692 6-6 6m0 1a7 7 0 1 0 0-14 7 7 0 0 0 0 14zM7 18.5c-1.93 0-3.5-1.57-3.5-3.5s1.57-3.5 3.5-3.5 3.5 1.57 3.5 3.5-1.57 3.5-3.5 3.5M7 20a5 5 0 1 0 0-10 5 5 0 0 0 0 10z"/><path d="M7 21c-3.308 0-6-2.692-6-6s2.692-6 6-6 6 2.692 6 6-2.692 6-6 6m0 1A7 7 0 1 0 7 8a7 7 0 0 0 0 14zM33 17.49c-1.93 0-3.5-1.57-3.5-3.5s1.57-3.5 3.5-3.5 3.5 1.57 3.5 3.5-1.57 3.5-3.5 3.5m0 1.5a5 5 0 1 0 0-10 5 5 0 0 0 0 10z"/><path d="M33 19.99c-3.308 0-6-2.69-6-6s2.692-6 6-6 6 2.693 6 6-2.692 6-6 6m0 1a7 7 0 1 0 0-14 7 7 0 0 0 0 14zM32.25.188V6h1.5V.188h2.44L33-3 29.81.188zM19.25 7.188V13h1.5V7.188h2.44L20 4l-3.19 3.188zM6.25 1.188V7h1.5V1.188h2.44L7-2 3.81 1.188z"/></svg><view id="icon-trash" viewBox="0 136 24 24"/><svg width="24" height="24" viewBox="0 0 24 24" y="136"><path d="M3 6v18h18V6H3zm5 14a1 1 0 0 1-2 0V10a1 1 0 0 1 2 0v10zm5 0a1 1 0 0 1-2 0V10a1 1 0 0 1 2 0v10zm5 0a1 1 0 0 1-2 0V10a1 1 0 0 1 2 0v10zm4-18v2H2V2h5.71c.9 0 1.632-1.1 1.632-2h5.315c0 .9.73 2 1.63 2H22z"/></svg><view id="icon-triangle" viewBox="24 136 24 24"/><svg width="24" height="24" viewBox="0 0 24 24" x="24" y="136"><path d="M24 22H0L12 2z"/></svg><view id="icon-up-down" viewBox="48 136 24 24"/><svg version="1" width="24" height="24" viewBox="0 0 24 24" x="48" y="136"><path d="M7 24l6-9H9V0H5v15H1l6 9z"/><path d="M17 0l-6 9h4v15h4V9h4l-6-9z"/></svg><view id="icon-upload" viewBox="72 136 24 24"/><svg width="24" height="24" viewBox="0 0 24 24" x="72" y="136"><path d="M19.48 10.092C19.266 6.142 16.005 3 12 3c-4.005 0-7.267 3.14-7.48 7.092A5.5 5.5 0 0 0 5.5 21h13a5.5 5.5 0 0 0 .98-10.908zM12 9l4 4h-3v4h-2v-4H8l4-4z"/></svg><view id="icon-x" viewBox="96 136 24 24"/><svg width="24" height="24" viewBox="0 0 24 24" x="96" y="136"><path d="M24 20.188l-8.315-8.21 8.2-8.28L20.188 0l-8.212 8.318L3.666.115 0 3.78l8.32 8.24-8.205 8.314L3.78 24l8.238-8.318 8.285 8.203z"/></svg><view id="icon-x-2" viewBox="120 136 24 24"/><svg width="24" height="24" viewBox="0 0 24 24" x="120" y="136"><path d="M23.954 21.03l-9.184-9.095 9.092-9.174L21.03-.045l-9.09 9.18L2.764.043l-2.81 2.81L9.14 11.96.045 21.144l2.81 2.81 9.112-9.192 9.18 9.1z"/></svg></svg>
