<svg style="display: none;" width="112" height="112" viewBox="0 0 112 112" xmlns="http://www.w3.org/2000/svg" xmlns:xlink="http://www.w3.org/1999/xlink"><view id="icon-android" viewBox="64 0 24 24"/><svg width="24" height="24" viewBox="0 0 24 24" x="64"><path d="M6 8l.001 9.444c0 .861.696 1.556 1.557 1.556H8v3.542C8 23.346 8.707 24 9.51 24c.806 0 1.49-.654 1.49-1.459V19h2v3.542c0 .804.707 1.458 1.511 1.458.806 0 1.489-.654 1.489-1.459V19l.444-.001c.858 0 1.556-.696 1.556-1.557V8H6zm16 1.471C22 8.666 21.305 8 20.5 8c-.805-.001-1.5.667-1.5 1.472v6.106c0 .806.694 1.422 1.5 1.422.805 0 1.5-.615 1.5-1.422V9.471zm-17 0C5 8.666 4.305 8 3.5 8 2.695 7.999 2 8.667 2 9.472v6.106C2 16.384 2.694 17 3.5 17c.805 0 1.5-.615 1.5-1.422V9.471zm9.951-7.312L15.891.3c.068-.132-.019-.3-.163-.3a.185.185 0 0 0-.164.105l-.949 1.878c-1.531-.737-3.544-.812-5.229 0L8.436.105A.183.183 0 0 0 8.272 0c-.144 0-.231.168-.163.3l.94 1.859C7.204 3.193 6 4.743 6 6.999h12c0-2.256-1.204-3.806-3.049-4.84zM9.501 5a.501.501 0 0 1 0-1 .5.5 0 0 1 0 1zm4.998 0a.5.5 0 1 1 0-.999.5.5 0 0 1 0 .999z"/></svg><view id="icon-apple" viewBox="0 64 24 24"/><svg width="24" height="24" viewBox="0 0 24 24" y="64"><path d="M22 17.607c-.786 2.28-3.139 6.317-5.563 6.361-1.608.031-2.125-.953-3.963-.953-1.837 0-2.412.923-3.932.983C5.97 24.097 2 18.171 2 13.003c0-4.747 3.308-7.1 6.198-7.143 1.55-.028 3.014 1.045 3.959 1.045.949 0 2.727-1.29 4.596-1.101.782.033 2.979.315 4.389 2.377-3.741 2.442-3.158 7.549.858 9.426zM16.778 0c-2.826.114-5.132 3.079-4.81 5.531 2.612.203 5.118-2.725 4.81-5.531z"/></svg><view id="icon-button-error" viewBox="0 0 32 32"/><svg version="1" id="cLayer_1" viewBox="0 0 32 32" width="32" height="32"><style>.cst0{fill:#1d1d1b}</style><path class="cst0" d="M29.7 3.7l-1.4-1.4L16 14.6 3.7 2.3 2.3 3.7 14.6 16 2.3 28.3l1.4 1.4L16 17.4l12.3 12.3 1.4-1.4L17.4 16z"/></svg><view id="icon-button-ok" viewBox="32 0 32 32"/><svg version="1" id="dLayer_1" viewBox="0 0 32 32" width="32" height="32" x="32"><style>.dst0{fill:#1d1d1b}</style><path class="dst0" d="M11 27.4L.3 16.7l1.4-1.4 9.3 9.3L30.3 5.3l1.4 1.4z"/></svg><view id="icon-button-pending" viewBox="0 32 32 32"/><svg version="1" id="eLayer_1" viewBox="0 0 32 32" width="32" height="32" y="32"><style>.est0{fill:#1d1d1b}</style><path class="est0" d="M31.9 24.3l-3.3-6.4-6.5 2.4.7 1.9 3.7-1.4c-1.8 4.3-6 7.2-10.7 7.2-5.3 0-10-3.7-11.3-9l-1.9.5C4.1 25.7 9.5 30 15.8 30c5.5 0 10.4-3.3 12.5-8.3l1.8 3.5 1.8-.9zM9.6 11.5l-.5-1.9-3.8 1c2-4 6-6.7 10.5-6.7 5.2 0 9.7 3.4 11.2 8.4l1.9-.6C27.1 6 21.8 2 15.8 2c-5.3 0-10 3-12.3 7.7L1.9 6.2l-1.8.9 3 6.3 6.5-1.9z"/></svg><view id="icon-cart" viewBox="64 24 24 24"/><svg width="24" height="24" viewBox="0 0 24 24" x="64" y="24"><path d="M10 19.5a1.5 1.5 0 1 1-3 0 1.5 1.5 0 0 1 3 0zm3.5-1.5a1.5 1.5 0 1 0 0 3 1.5 1.5 0 0 0 0-3zm1.336-5l1.977-7H0l2.938 7h11.898zm4.969-10l-3.432 12H3.776l.839 2h13.239l3.474-12h1.929L24 3h-4.195z"/></svg><view id="icon-close" viewBox="32 32 24 24"/><svg width="24" height="24" viewBox="0 0 24 24" x="32" y="32"><path d="M23.954 21.03l-9.184-9.095 9.092-9.174L21.03-.046l-9.09 9.179L2.764.045l-2.81 2.81L9.14 11.96.045 21.144l2.81 2.81 9.112-9.192 9.18 9.1z"/></svg><view id="icon-download" viewBox="24 64 24 24"/><svg width="24" height="24" viewBox="0 0 24 24" x="24" y="64"><path d="M16 11h5l-9 10-9-10h5V0h8v11zm1 11H7v2h10v-2z"/></svg><view id="icon-email" viewBox="48 64 24 24"/><svg width="24" height="24" viewBox="0 0 24 24" x="48" y="64"><path d="M12.042 23.648C4.229 23.648 0 18.772 0 12.477 0 5.75 4.762.352 13.276.352 19.49.352 24 4.39 24 9.953c0 8.712-10.33 11.012-9.812 6.042-.71 1.108-1.854 2.354-4.053 2.354-2.516 0-4.08-1.842-4.08-4.807 0-4.444 2.921-8.199 6.379-8.199 1.659 0 2.8.876 3.277 2.221l.464-1.632h2.338c-.244.832-2.321 8.527-2.321 8.527-.648 2.666 1.35 2.713 3.122 1.297 3.329-2.58 3.501-9.327-.998-12.141C13.495.724 2.521 2.513 2.521 12.308c0 5.611 3.95 9.381 9.829 9.381 3.436 0 5.542-.93 7.295-1.948l1.177 1.698c-1.711.966-4.461 2.209-8.78 2.209zM9.698 9.343c-.715 1.34-1.177 3.076-1.177 4.424 0 3.61 3.522 3.633 5.252.239.712-1.394 1.171-3.171 1.171-4.529 0-2.917-3.495-3.434-5.246-.134z"/></svg><view id="icon-fact-check-mark" viewBox="88 0 24 24"/><svg version="1" width="24" height="24" viewBox="0 0 24 24" x="88"><path d="M10.068 21.64L21.983 9.724l-.655-.702-11.26 11.26-5.461-5.461-.679.679 6.14 6.14z"/></svg><view id="icon-squares-3x3" viewBox="88 24 24 24"/><svg width="24" height="24" viewBox="0 0 24 24" x="88" y="24"><path d="M6 6H0V0h6v6zm9-6H9v6h6V0zm9 0h-6v6h6V0zM6 9H0v6h6V9zm9 0H9v6h6V9zm9 0h-6v6h6V9zM6 18H0v6h6v-6zm9 0H9v6h6v-6zm9 0h-6v6h6v-6z"/></svg><view id="icon-triangle" viewBox="88 48 24 24"/><svg width="24" height="24" viewBox="0 0 24 24" x="88" y="48"><path d="M24 22H0L12 2z"/></svg><view id="icon-windows" viewBox="0 88 24 24"/><svg width="24" height="24" viewBox="0 0 24 24" y="88"><path d="M0 12V3.354l10-1.355V12H0zm11 0h13V0L11 1.807V12zm-1 1H0v7.646l10 1.355V13zm1 0v9.194L24 24V13H11z"/></svg></svg>
