<svg style="display: none;" width="48" height="48" viewBox="0 0 48 48" xmlns="http://www.w3.org/2000/svg" xmlns:xlink="http://www.w3.org/1999/xlink"><view id="icon-android" viewBox="0 0 24 24"/><svg width="24" height="24" viewBox="0 0 24 24"><path d="M6 8l.001 9.444c0 .861.696 1.556 1.557 1.556H8v3.542C8 23.346 8.707 24 9.51 24c.806 0 1.49-.654 1.49-1.459V19h2v3.542c0 .804.707 1.458 1.511 1.458.806 0 1.489-.654 1.489-1.459V19l.444-.001c.858 0 1.556-.696 1.556-1.557V8H6zm16 1.471C22 8.666 21.305 8 20.5 8c-.805-.001-1.5.667-1.5 1.472v6.106c0 .806.694 1.422 1.5 1.422.805 0 1.5-.615 1.5-1.422V9.471zm-17 0C5 8.666 4.305 8 3.5 8 2.695 7.999 2 8.667 2 9.472v6.106C2 16.384 2.694 17 3.5 17c.805 0 1.5-.615 1.5-1.422V9.471zm9.951-7.312L15.891.3c.068-.132-.019-.3-.163-.3a.185.185 0 0 0-.164.105l-.949 1.878c-1.531-.737-3.544-.812-5.229 0L8.436.105A.183.183 0 0 0 8.272 0c-.144 0-.231.168-.163.3l.94 1.859C7.204 3.193 6 4.743 6 6.999h12c0-2.256-1.204-3.806-3.049-4.84zM9.501 5a.501.501 0 0 1 0-1 .5.5 0 0 1 0 1zm4.998 0a.5.5 0 1 1 0-.999.5.5 0 0 1 0 .999z"/></svg><view id="icon-apple" viewBox="24 0 24 24"/><svg width="24" height="24" viewBox="0 0 24 24" x="24"><path d="M22 17.607c-.786 2.28-3.139 6.317-5.563 6.361-1.608.031-2.125-.953-3.963-.953-1.837 0-2.412.923-3.932.983C5.97 24.097 2 18.171 2 13.003c0-4.747 3.308-7.1 6.198-7.143 1.55-.028 3.014 1.045 3.959 1.045.949 0 2.727-1.29 4.596-1.101.782.033 2.979.315 4.389 2.377-3.741 2.442-3.158 7.549.858 9.426zM16.778 0c-2.826.114-5.132 3.079-4.81 5.531 2.612.203 5.118-2.725 4.81-5.531z"/></svg><view id="icon-download" viewBox="0 24 24 24"/><svg width="24" height="24" viewBox="0 0 24 24" y="24"><path d="M16 11h5l-9 10-9-10h5V0h8v11zm1 11H7v2h10v-2z"/></svg><view id="icon-windows" viewBox="24 24 24 24"/><svg width="24" height="24" viewBox="0 0 24 24" x="24" y="24"><path d="M0 12V3.354l10-1.355V12H0zm11 0h13V0L11 1.807V12zm-1 1H0v7.646l10 1.355V13zm1 0v9.194L24 24V13H11z"/></svg></svg>
