<svg style="display: none;" xmlns="http://www.w3.org/2000/svg" xmlns:xlink="http://www.w3.org/1999/xlink"><symbol viewBox="0 0 24 24" id="icon-arrow"><path d="M12.068.016L8.35 3.714 13.615 9H0v6h13.614L8.32 20.317l3.717 3.7L24 12z"/></symbol><symbol viewBox="0 0 24 24" id="icon-arrow-2"><path d="M5 3l3.057-3L20 12 8.057 24 5 21l9-9z"/></symbol><symbol viewBox="0 0 24 24" id="icon-check-mark"><path d="M20.285 2L9 13.567l-5.286-5.01L0 12.27 9 21 24 5.715z"/></symbol><symbol viewBox="0 0 24 24" id="icon-cube"><path d="M12 0L1 6v12.13L12 24l11-5.87V6.066L12 0zm9 11.623l-3 1.57v-3.26l3-1.602v3.293zM8 10.97l3 1.624v3.186l-3-1.614V10.97zm.9-1.8l2.986-1.603 3.132 1.688-3.014 1.608L8.9 9.17zM13 12.6l3-1.6v3.238l-3 1.57V12.6zm4.138-4.475l-3.14-1.69L16.8 4.93l3.11 1.716-2.772 1.48zM14.714 3.78L11.89 5.297l-2.73-1.47 2.835-1.546 2.72 1.5zm-7.65 1.19l2.712 1.46-2.973 1.596-2.67-1.456 2.932-1.6zM6 9.878v3.204l-3-1.636V8.23l3 1.648zM3 13.72l3 1.637v3.185l-3-1.61v-3.21zm5 5.89v-3.17l3 1.614V21.2l-3-1.59zm5-1.546l3-1.57V19.6l-3 1.6v-3.136zm5 .468V15.45l3-1.57v3.05l-3 1.602z"/></symbol><symbol viewBox="0 0 24 24" id="icon-eye"><path d="M15 12a3 3 0 1 1-5.943-.58c1.474.54 2.927-.883 2.405-2.372A3 3 0 0 1 15 12zm-2.985-7C4.445 5 0 11.55 0 11.55S4.835 19 12.015 19C19.748 19 24 11.55 24 11.55S19.71 5 12.015 5zM12 17a5 5 0 1 1 0-10 5 5 0 0 1 0 10z"/></symbol><symbol viewBox="0 0 24 24" id="icon-folder"><path d="M7.972 2H1l.714 5h2.02l-.428-3H7c1.112 1.388 1.952 2 4.277 2h9.283l-.2 1h2.04l.6-3H11.277C9.3 4 9.237 3.583 7.972 2zM24 9H0l2 13h20l2-13z"/></symbol><symbol viewBox="0 0 24 24" id="icon-fullscreen"><path d="M6.426 10.668L2.88 7.12 0 10V0h10L7.12 2.88l3.548 3.546-4.242 4.242zm11.148 2.664l3.547 3.547L24 14v10H14l2.88-2.88-3.548-3.546 4.242-4.242zm-6.906 4.242L7.12 21.12 10 24H0V14l2.88 2.88 3.546-3.548 4.242 4.242zm2.664-11.148L16.88 2.88 14 0h10v10l-2.88-2.88-3.546 3.548-4.242-4.242z"/></symbol><symbol viewBox="0 0 24 24" id="icon-gear"><path d="M24 13.616v-3.232c-1.65-.587-2.694-.752-3.22-2.02-.526-1.27.1-2.134.848-3.707l-2.285-2.285c-1.56.742-2.433 1.375-3.707.847-1.27-.527-1.436-1.577-2.02-3.22h-3.232c-.582 1.635-.75 2.692-2.02 3.22-1.27.527-2.132-.1-3.707-.848L2.372 4.657c.745 1.568 1.375 2.434.847 3.707-.528 1.27-1.585 1.438-3.22 2.02v3.232c1.632.58 2.692.75 3.22 2.02.53 1.28-.115 2.165-.848 3.706l2.285 2.286c1.562-.743 2.434-1.375 3.707-.847 1.27.527 1.437 1.58 2.02 3.22h3.232c.582-1.636.75-2.69 2.027-3.222 1.263-.524 2.12.1 3.7.85l2.284-2.285c-.744-1.563-1.375-2.433-.848-3.706.526-1.27 1.587-1.44 3.22-2.02zM12 16a4 4 0 1 1 0-8 4 4 0 0 1 0 8z"/></symbol><symbol viewBox="0 0 24 24" id="icon-magnifier"><path d="M21.172 24l-7.387-7.387A8.945 8.945 0 0 1 9 18a9 9 0 1 1 9-9 8.95 8.95 0 0 1-1.387 4.785L24 21.172 21.172 24zM9 16c3.86 0 7-3.14 7-7s-3.14-7-7-7-7 3.14-7 7 3.14 7 7 7z"/></symbol><symbol viewBox="0 0 24 24" id="icon-maximize"><path d="M24 13h-2v9h-9v2h11V13zM0 0h11v2H2v9H0V0zm20.622 7.62l-13 13L11 24H0V13l3.378 3.38 13-13L13 0h11v11l-3.378-3.38z"/></symbol><symbol viewBox="0 0 24 24" id="icon-minus"><path d="M0 9h24v6H0z"/></symbol><symbol viewBox="0 0 24 24" id="icon-paint-bucket"><path d="M22.38 0c-.343 0-.69.11-.985.334-.67.513-1.02 1.576-1.614 2.217-.77.83-2.23.45-3.563-.977-1.507 1.424-3.404 2.99-5.467 3.536l1.218 1.59c.56.096 1.375-.133 1.82-.543-.235.6-.65 1.054-1.24 1.304l.516.676c1.22 1.59-1.443 1.758-2.972 1.756-1.826 0-5.768-.39-5.768-1.39 0-1.112 4.627-1.632 5.895-1.612L8.957 5.146c-3.55.17-5.66 1.153-6.502 1.995-.293.294-.435.568-.435.783v1.06C.724 10.056 0 11.32 0 12.578c0 1.164.603 2.146 1.684 2.763.704.402 1.682.666 2.887.666 1.272 0 2.798-.302 4.515-1.033a1.5 1.5 0 0 1 1.418-1.975A1.495 1.495 0 0 1 12 14.5c0 .83-.67 1.5-1.5 1.5a1.48 1.48 0 0 1-.774-.22c-1.8.8-3.554 1.228-5.155 1.228-.936 0-1.8-.148-2.553-.422l-.002 3.667c0 .63.268 1.237.802 1.772C3.973 23.18 6.377 24 10.043 24c3.908 0 6.945-.946 8.254-2.255.46-.46.703-.972.703-1.492V8.85a33.65 33.65 0 0 1 1.875-1.272c-1.047-1.694-1.06-3.22.01-3.73.767-.367 1.83-.44 2.478-.937.418-.32.637-.803.637-1.292C24 .726 23.28 0 22.38 0zM2.02 14.357c-.65-.435-1.01-1.04-1.01-1.78 0-.728.362-1.5 1.013-2.218l-.002 3.997zM16 20.844a6.405 6.405 0 0 1-2 .562v-9.844a6.543 6.543 0 0 0 2-.516v9.798zm1.712-12.88l-2.75-3.54 1.29-.987L19.02 7l-1.31.964zm4.995-5.913a.535.535 0 0 1-.755-.1.538.538 0 0 1 .1-.757.54.54 0 1 1 .655.858z"/></symbol><symbol viewBox="0 0 24 24" id="icon-picture"><path d="M5 8.5a1.5 1.5 0 1 1 3 0 1.5 1.5 0 0 1-3 0zm9 .5l-2.52 4L9 11.04 5 17h14l-5-8zm8-4v14H2V5h20zm2-2H0v18h24V3z"/></symbol><symbol viewBox="0 0 24 24" id="icon-pin"><path d="M11 17h2v5l-2 2v-7zm3.57-12c0-2.903 2.36-3.09 2.43-5H7c.068 1.91 2.43 2.097 2.43 5C9.43 8.77 6 8.29 6 15h12c0-6.71-3.43-6.23-3.43-10z"/></symbol><symbol viewBox="0 0 24 24" id="icon-plus"><path d="M24 9h-9V0H9v9H0v6h9v9h6v-9h9z"/></symbol><symbol viewBox="0 0 24 24" id="icon-plus-2"><path d="M24 10H14V0h-4v10H0v4h10v10h4V14h10z"/></symbol><symbol viewBox="0 0 24 24" id="icon-resize-2"><path d="M16 0v2H8V0h8zm2 2h4v4h2V0h-6v2zM2 6V2h4V0H0v6h2zm22 2h-2v8h2V8zm-2 10v4h-4v2h6v-6h-2zM0 24h16V8H0v16z"/></symbol><symbol viewBox="0 0 24 24" id="icon-scroll"><path d="M12 0a8 8 0 0 0-8 8v8a8 8 0 0 0 16 0V8a8 8 0 0 0-8-8zm0 7.5a1.5 1.5 0 1 1 0-3 1.5 1.5 0 0 1 0 3z"/></symbol><symbol viewBox="0 0 24 24" id="icon-squares-2x2"><path d="M11 11H0V0h11v11zm13 0H13V0h11v11zM11 24H0V13h11v11zm13 0H13V13h11v11z"/></symbol><symbol viewBox="0 0 24 24" id="icon-squares-3x3"><path d="M6 6H0V0h6v6zm9-6H9v6h6V0zm9 0h-6v6h6V0zM6 9H0v6h6V9zm9 0H9v6h6V9zm9 0h-6v6h6V9zM6 18H0v6h6v-6zm9 0H9v6h6v-6zm9 0h-6v6h6v-6z"/></symbol><symbol viewBox="0 0 24 24" id="icon-tools"><path d="M23.27 19.743L11.324 7.798a2.706 2.706 0 0 1-.783-2.115 5.278 5.278 0 0 0-1.528-4.146A5.248 5.248 0 0 0 5.29 0C4.78 0 4.273.072 3.783.216l3.17 3.17c.344 1.59-1.96 3.918-3.567 3.567l-3.17-3.17c-.144.492-.217 1-.217 1.51a5.264 5.264 0 0 0 5.684 5.25 2.698 2.698 0 0 1 2.113.783L19.743 23.27a2.494 2.494 0 0 0 3.527-3.527zM21.5 22.5a1 1 0 1 1 0-2 1 1 0 0 1 0 2zM13.565 7.21l5.327-5.317a2.98 2.98 0 0 1 2.113-.877c.764 0 1.53.292 2.113.877a2.99 2.99 0 0 1 .01 4.235L17.8 11.446l-1.038-1.04L21.83 5.35a.43.43 0 0 0-.002-.61.43.43 0 0 0-.61 0L16.15 9.796l-.89-.89 5.067-5.06a.432.432 0 0 0-.61-.61l-5.068 5.058-1.085-1.083zm-3.53 9.18l-5.227 5.186c-.227.23-.423.488-.574.774l-.3.58-2.1 1.07L1 23.166l1.025-2.146.58-.302c.286-.15.56-.33.79-.558l5.227-5.185 1.413 1.416z"/></symbol><symbol viewBox="0 -8 40 40" id="icon-touch-move-down-3"><path d="M20 .5c1.93 0 3.5 1.57 3.5 3.5S21.93 7.5 20 7.5 16.5 5.93 16.5 4 18.07.5 20 .5M20-1a5 5 0 1 0 0 10 5 5 0 0 0 0-10z"/><path d="M20-2c3.308 0 6 2.692 6 6s-2.692 6-6 6-6-2.692-6-6 2.692-6 6-6m0-1a7 7 0 1 0 0 14 7 7 0 0 0 0-14zM33 6.5c1.93 0 3.5 1.57 3.5 3.5s-1.57 3.5-3.5 3.5-3.5-1.57-3.5-3.5 1.57-3.5 3.5-3.5M33 5a5 5 0 1 0 0 10 5 5 0 0 0 0-10z"/><path d="M33 4c3.308 0 6 2.692 6 6s-2.692 6-6 6-6-2.692-6-6 2.692-6 6-6m0-1a7 7 0 1 0 0 14 7 7 0 0 0 0-14zM7 7.51c1.93 0 3.5 1.57 3.5 3.5s-1.57 3.5-3.5 3.5-3.5-1.57-3.5-3.5 1.57-3.5 3.5-3.5m0-1.5a5 5 0 1 0 0 10 5 5 0 0 0 0-10z"/><path d="M7 5.01c3.308 0 6 2.69 6 6s-2.692 6-6 6-6-2.693-6-6 2.692-6 6-6m0-1a7 7 0 1 0 0 14 7 7 0 0 0 0-14zM7.75 24.812V19h-1.5v5.812H3.81L7 28l3.19-3.188zM20.75 17.812V12h-1.5v5.812h-2.44L20 21l3.19-3.188zM33.75 23.812V18h-1.5v5.812h-2.44L33 27l3.19-3.188z"/></symbol><symbol viewBox="0 -8 40 40" id="icon-touch-move-up-3"><path d="M20 24.5c-1.93 0-3.5-1.57-3.5-3.5s1.57-3.5 3.5-3.5 3.5 1.57 3.5 3.5-1.57 3.5-3.5 3.5m0 1.5a5 5 0 1 0 0-10 5 5 0 0 0 0 10z"/><path d="M20 27c-3.308 0-6-2.692-6-6s2.692-6 6-6 6 2.692 6 6-2.692 6-6 6m0 1a7 7 0 1 0 0-14 7 7 0 0 0 0 14zM7 18.5c-1.93 0-3.5-1.57-3.5-3.5s1.57-3.5 3.5-3.5 3.5 1.57 3.5 3.5-1.57 3.5-3.5 3.5M7 20a5 5 0 1 0 0-10 5 5 0 0 0 0 10z"/><path d="M7 21c-3.308 0-6-2.692-6-6s2.692-6 6-6 6 2.692 6 6-2.692 6-6 6m0 1A7 7 0 1 0 7 8a7 7 0 0 0 0 14zM33 17.49c-1.93 0-3.5-1.57-3.5-3.5s1.57-3.5 3.5-3.5 3.5 1.57 3.5 3.5-1.57 3.5-3.5 3.5m0 1.5a5 5 0 1 0 0-10 5 5 0 0 0 0 10z"/><path d="M33 19.99c-3.308 0-6-2.69-6-6s2.692-6 6-6 6 2.693 6 6-2.692 6-6 6m0 1a7 7 0 1 0 0-14 7 7 0 0 0 0 14zM32.25.188V6h1.5V.188h2.44L33-3 29.81.188zM19.25 7.188V13h1.5V7.188h2.44L20 4l-3.19 3.188zM6.25 1.188V7h1.5V1.188h2.44L7-2 3.81 1.188z"/></symbol><symbol viewBox="0 0 24 24" id="icon-trash"><path d="M3 6v18h18V6H3zm5 14a1 1 0 0 1-2 0V10a1 1 0 0 1 2 0v10zm5 0a1 1 0 0 1-2 0V10a1 1 0 0 1 2 0v10zm5 0a1 1 0 0 1-2 0V10a1 1 0 0 1 2 0v10zm4-18v2H2V2h5.71c.9 0 1.632-1.1 1.632-2h5.315c0 .9.73 2 1.63 2H22z"/></symbol><symbol viewBox="0 0 24 24" id="icon-up-down"><path d="M7 24l6-9H9V0H5v15H1l6 9z"/><path d="M17 0l-6 9h4v15h4V9h4l-6-9z"/></symbol><symbol viewBox="0 0 24 24" id="icon-upload"><path d="M19.48 10.092C19.266 6.142 16.005 3 12 3c-4.005 0-7.267 3.14-7.48 7.092A5.5 5.5 0 0 0 5.5 21h13a5.5 5.5 0 0 0 .98-10.908zM12 9l4 4h-3v4h-2v-4H8l4-4z"/></symbol><symbol viewBox="0 0 24 24" id="icon-x"><path d="M24 20.188l-8.315-8.21 8.2-8.28L20.188 0l-8.212 8.318L3.666.115 0 3.78l8.32 8.24-8.205 8.314L3.78 24l8.238-8.318 8.285 8.203z"/></symbol><symbol viewBox="0 0 24 24" id="icon-x-2"><path d="M23.954 21.03l-9.184-9.095 9.092-9.174L21.03-.045l-9.09 9.18L2.764.043l-2.81 2.81L9.14 11.96.045 21.144l2.81 2.81 9.112-9.192 9.18 9.1z"/></symbol></svg>
