<svg style="display: none;" xmlns="http://www.w3.org/2000/svg" xmlns:xlink="http://www.w3.org/1999/xlink"><symbol viewBox="0 0 24 24" id="icon-add-button"><path d="M10 16H6v-4H4v4H0v2h4v4h2v-4h4zM15.5 8.75l7.5 5.756-3.177.532 1.994 4.067-1.83.895-2.006-4.105-2.481 2.147V8.75zM14 12.237A4.502 4.502 0 0 1 11 8c0-2.482 2.018-4.5 4.5-4.5S20 5.518 20 8c0 .704-.167 1.368-.457 1.963l1.213.931A6 6 0 1 0 9.5 8a5.997 5.997 0 0 0 4.5 5.804v-1.567z"/></symbol><symbol viewBox="0 0 24 24" id="icon-add-image"><path d="M10 17H6v-4H4v4H0v2h4v4h2v-4h4zM11.333 4.667a1 1 0 1 1 2 0 1 1 0 0 1-2 0zm6 .333l-1.679 2.667L14 6.36l-2.667 3.973h9.333L17.333 5zm5.334-2.667v9.333H9.333V2.333h13.334zM24 1H8v12h16V1z"/></symbol><symbol viewBox="0 0 24 24" id="icon-add-text-1"><path d="M24 3H9v4.5h1.499c0-.88.298-2.25 1.501-2.25h3v12.656c0 .88-.619 1.594-1.5 1.594h-.75V21h7.499v-1.5H19.5c-.881 0-1.5-.714-1.5-1.594V5.25h3c1.237 0 1.515 1.37 1.515 2.25H24V3zM10 16H6v-4H4v4H0v2h4v4h2v-4h4z"/></symbol><symbol viewBox="0 0 24 24" id="icon-add-text-2"><path d="M10 16H6v-4H4v4H0v2h4v4h2v-4h4zM15.053 2C12.263 2 10 4.084 10 6.875s2.459 4.875 5.25 4.875V20h1.5V3.5h3.75V20h1.477V5c0-1.194.286-1.5 1.523-1.5V2h-8.447z"/></symbol><symbol viewBox="0 0 24 24" id="icon-arrow"><path d="M12.068.016L8.351 3.714 13.614 9H0v6h13.614l-5.295 5.317 3.718 3.699L24 12z"/></symbol><symbol viewBox="0 0 24 24" id="icon-arrow-2"><path d="M5 3l3.057-3L20 12 8.057 24 5 21l9-9z"/></symbol><symbol viewBox="0 0 24 24" id="icon-box-shadow"><path d="M4 0h20v20H4z"/><path opacity=".32" d="M0 4h20v20H0z"/></symbol><symbol viewBox="0 0 24 24" id="icon-button-fill"><path d="M0 0v24h24V0H0zm18.5 8.75h-1.237c0-.734-.232-1.875-1.263-1.875h-2.5v10.546c0 .734.516 1.329 1.25 1.329h.624V20H9.125v-1.25h.625c.734 0 1.25-.595 1.25-1.329V6.875H8.5c-1.003 0-1.251 1.141-1.251 1.875H6V5h12.5v3.75z"/></symbol><symbol viewBox="0 0 24 24" id="icon-button-stroke"><path d="M18.5 5H6v3.75h1.249c0-.734.248-1.875 1.251-1.875H11v10.546c0 .734-.516 1.329-1.25 1.329h-.625V20h6.249v-1.25h-.624c-.734 0-1.25-.595-1.25-1.329V6.875H16c1.031 0 1.263 1.141 1.263 1.875H18.5V5z"/><path d="M22 2v20H2V2h20m2-2H0v24h24V0z"/></symbol><symbol viewBox="0 0 24 24" id="icon-check-mark"><path d="M20.285 2L9 13.567 3.714 8.556 0 12.272 9 21 24 5.715z"/></symbol><symbol viewBox="0 0 24 24" id="icon-circle"><circle cx="12" cy="12" r="12"/></symbol><symbol viewBox="0 0 24 24" id="icon-circle-line"><path d="M12 2c5.514 0 10 4.486 10 10s-4.486 10-10 10S2 17.514 2 12 6.486 2 12 2zm0-2C5.373 0 0 5.373 0 12s5.373 12 12 12 12-5.373 12-12S18.627 0 12 0z"/></symbol><symbol viewBox="0 0 56 48" id="icon-claim-content"><path d="M10 20h36v4H10zM13 26h30v2H13z"/><path d="M54 14v20H2V14h52m2-2H0v24h56V12z"/><g><path opacity=".35" d="M54 42H2v-6H0v8h56v-8h-2zM0 4v8h2V6h52v6h2V4z"/></g></symbol><symbol viewBox="0 0 56 48" id="icon-claim-full-size"><path d="M10 20h36v4H10zM13 26h30v2H13z"/><path d="M54 14v28H2V6h52m2-2H0v40h56V4z"/></symbol><symbol viewBox="0 0 24 24" id="icon-color-fill"><path d="M12 0C5.373 0 0 5.373 0 12s5.373 12 12 12 12-5.373 12-12S18.627 0 12 0zM5.627 16.199c3.809.315 2.446-3.73 5.97-3.769l1.526 1.274c.381 4.6-5.244 5.626-7.496 2.495zm8.293-3.396l-1.549-1.293c.457-2.18 1.854-4.188 3.267-5.51L19 8.804c-1.041 1.636-3.023 3.154-5.08 3.999z"/></symbol><symbol viewBox="0 0 24 24" id="icon-color-stroke"><path d="M12 2c5.514 0 10 4.486 10 10s-4.486 10-10 10S2 17.514 2 12 6.486 2 12 2zm0-2C5.373 0 0 5.373 0 12s5.373 12 12 12 12-5.373 12-12S18.627 0 12 0zM5.627 16.199c3.809.315 2.446-3.73 5.97-3.769l1.526 1.274c.381 4.6-5.244 5.626-7.496 2.495zm13.185-7.387L15.638 6c-1.413 1.322-2.81 3.33-3.267 5.51l1.549 1.293c2.057-.845 3.851-2.355 4.892-3.991z"/></symbol><symbol viewBox="0 0 24 24" id="icon-cube"><path d="M12 0L1 6v12.131L12 24l11-5.869V6.065L12 0zm9 11.623l-3 1.569v-3.26l3-1.601v3.292zm-13-.654l3 1.625v3.186l-3-1.614v-3.197zm.9-1.799l2.986-1.603 3.132 1.688-3.014 1.608L8.9 9.17zM13 12.6l3-1.6v3.238l-3 1.569V12.6zm4.138-4.475l-3.139-1.691L16.8 4.931l3.11 1.715-2.772 1.479zM14.714 3.78l-2.825 1.517-2.728-1.47 2.834-1.546 2.719 1.499zM7.065 4.97l2.711 1.46-2.973 1.596-2.67-1.456 2.932-1.6zM6 9.878v3.204l-3-1.636V8.23l3 1.648zm-3 3.843l3 1.636v3.185l-3-1.611v-3.21zm5 5.888V16.44l3 1.614V21.2l-3-1.591zm5-1.545l3-1.569v3.104L13 21.2v-3.136zm5 .468v-3.083l3-1.569v3.051l-3 1.601z"/></symbol><symbol viewBox="0 0 24 24" id="icon-email"><path d="M12.042 23.648C4.229 23.648 0 18.772 0 12.477 0 5.75 4.762.352 13.276.352 19.49.352 24 4.39 24 9.953c0 8.712-10.33 11.012-9.812 6.042-.71 1.108-1.854 2.354-4.053 2.354-2.516 0-4.08-1.842-4.08-4.807 0-4.444 2.921-8.199 6.379-8.199 1.659 0 2.8.876 3.277 2.221l.464-1.632h2.338c-.244.832-2.321 8.527-2.321 8.527-.648 2.666 1.35 2.713 3.122 1.297 3.329-2.58 3.501-9.327-.998-12.141C13.495.724 2.521 2.513 2.521 12.308c0 5.611 3.95 9.381 9.829 9.381 3.436 0 5.542-.93 7.295-1.948l1.177 1.698c-1.711.966-4.461 2.209-8.78 2.209zM9.698 9.343c-.715 1.34-1.177 3.076-1.177 4.424 0 3.61 3.522 3.633 5.252.239.712-1.394 1.171-3.171 1.171-4.529 0-2.917-3.495-3.434-5.246-.134z"/></symbol><symbol viewBox="0 0 24 24" id="icon-eye"><path d="M15 12a3 3 0 1 1-5.943-.581c1.474.541 2.927-.882 2.405-2.371A3 3 0 0 1 15 12zm-2.985-7C4.446 5 0 11.551 0 11.551S4.835 19 12.015 19C19.748 19 24 11.551 24 11.551S19.709 5 12.015 5zM12 17a5 5 0 1 1 0-10 5 5 0 0 1 0 10z"/></symbol><symbol viewBox="0 0 56 48" id="icon-facts-icons"><path d="M11 11h34v4H11zM15 17h26v2H15z"/><path d="M54 5v38H2V5h52m2-2H0v42h56V3z"/><path d="M14 33.301c-1.034-.177-2-1.077-2-2.161v-1.716l2 1.814v2.063zm1.333-1.402v-1.876c1.829-.343 1.931-2.329 1.375-3.357l-.915 1.006-.789-1.006-.738 1.006-.941-1.006c-.541.999-.501 3.011 1.341 3.357v3.31h.993c1.211 0 2.341-.982 2.341-2.194v-1.716l-2.667 2.476zM27.001 33.301c-1.034-.177-2-1.077-2-2.161v-1.716l2 1.814v2.063zm1.333-1.402v-1.876c1.829-.343 1.931-2.329 1.375-3.357l-.915 1.006-.789-1.006-.738 1.006-.941-1.006c-.541.999-.501 3.011 1.341 3.357v3.31h.993c1.211 0 2.341-.982 2.341-2.194v-1.716l-2.667 2.476zM40.002 33.301c-1.034-.177-2-1.077-2-2.161v-1.716l2 1.814v2.063zm1.333-1.402v-1.876c1.829-.343 1.931-2.329 1.375-3.357l-.915 1.006-.789-1.006-.738 1.006-.941-1.006c-.541.999-.501 3.011 1.341 3.357v3.31h.993c1.211 0 2.341-.982 2.341-2.194v-1.716l-2.667 2.476zM11 35.5h8v1h-8zM24 35.5h8v1h-8zM37 35.5h8v1h-8z"/></symbol><symbol viewBox="0 0 56 48" id="icon-facts-numbers"><path d="M11 11h34v4H11zM15 17h26v2H15z"/><path d="M54 5v38H2V5h52m2-2H0v42h56V3z"/><path d="M11 35.5h8v1h-8zM24 35.5h8v1h-8zM37 35.5h8v1h-8zM14.945 28.641h-.032l-1.36.6h-.072l-.12-.528.008-.048 1.8-1.04h.68v5.919h-.904v-4.903zM26.478 32.736c0-.272.039-.514.116-.725.078-.21.191-.401.34-.571a2.82 2.82 0 0 1 .544-.473 8.45 8.45 0 0 1 .72-.432c.197-.106.368-.209.512-.308.144-.099.263-.198.356-.3a.957.957 0 0 0 .276-.68c0-.613-.389-.92-1.168-.92-.224 0-.46.019-.708.056s-.492.085-.732.144l-.088-.76c.347-.074.656-.128.928-.16s.53-.048.776-.048c.645 0 1.124.134 1.436.4s.468.669.468 1.208c0 .219-.031.416-.092.592a1.7 1.7 0 0 1-.272.492c-.12.152-.271.294-.452.428s-.389.266-.624.4c-.224.128-.42.249-.588.364a2.885 2.885 0 0 0-.42.34 1.297 1.297 0 0 0-.252.34.832.832 0 0 0-.084.372v.312h2.792v.736h-3.784v-.807z"/><g><path d="M40.552 33.544c-.224 0-.457-.011-.7-.032s-.447-.051-.612-.088v-.704h.04c.064.016.144.031.24.044a7.738 7.738 0 0 0 .612.06c.104.005.199.008.284.008.501 0 .865-.087 1.092-.26.227-.174.34-.439.34-.797 0-.347-.109-.6-.328-.76-.219-.16-.584-.24-1.096-.24h-.528v-.664h.52c.453 0 .778-.077.976-.232.197-.154.296-.4.296-.736 0-.331-.099-.573-.296-.728-.198-.155-.512-.232-.944-.232a5.73 5.73 0 0 0-.516.028c-.206.019-.42.047-.644.084h-.04l-.016-.712c.192-.037.413-.068.664-.092.25-.024.475-.036.672-.036.672 0 1.183.135 1.532.404.349.27.524.666.524 1.188 0 .342-.084.628-.252.86s-.407.393-.716.484v.04c.357.075.635.236.832.484s.296.556.296.924c0 .55-.19.97-.572 1.26-.381.292-.934.439-1.66.445z"/></g></symbol><symbol viewBox="0 0 56 48" id="icon-feature-bottom"><path d="M11 29h34v4H11zM15 35h26v2H15z"/><path d="M54 5v38H2V5h52m2-2H0v42h56V3z"/><path d="M33 21.952c-1.551-.265-3-1.615-3-3.242v-2.574l3 2.721v3.095zm2-2.103v-2.814c2.744-.515 2.897-3.494 2.062-5.035l-1.372 1.509L34.507 12 33.4 13.509 31.988 12c-.812 1.499-.752 4.516 2.012 5.035V22h1.489C37.306 22 39 20.527 39 18.709v-2.574l-4 3.714zM19 21.952c-1.551-.265-3-1.615-3-3.242v-2.574l3 2.721v3.095zm2-2.103v-2.814c2.744-.515 2.897-3.494 2.062-5.035l-1.372 1.509L20.507 12 19.4 13.509 17.988 12c-.812 1.499-.752 4.516 2.012 5.035V22h1.489C23.306 22 25 20.527 25 18.709v-2.574l-4 3.714z"/></symbol><symbol viewBox="0 0 56 48" id="icon-feature-full-center-bottom"><path d="M54 5v38H2V5h52m2-2H0v42h56V3z"/><path opacity=".35" d="M22.75 42.332c-5.429-.927-10.5-5.653-10.5-11.347v-9.009l10.5 9.524v10.832zm7-7.36v-9.849C39.354 23.32 39.889 12.894 36.967 7.5l-4.802 5.281L28.024 7.5l-3.874 5.281L19.208 7.5c-2.842 5.246-2.632 15.806 7.042 17.622V42.5h5.212c6.359 0 12.288-5.155 12.288-11.519v-9.009l-14 13z"/><path d="M18 28.875h20v4H18zM20 34.875h16v2H20z"/></symbol><symbol viewBox="0 0 56 48" id="icon-feature-full-center-center"><path d="M54 5v38H2V5h52m2-2H0v42h56V3z"/><path opacity=".35" d="M22.75 42.332c-5.429-.927-10.5-5.653-10.5-11.347v-9.009l10.5 9.524v10.832zm7-7.36v-9.849C39.354 23.32 39.889 12.894 36.967 7.5l-4.802 5.281L28.024 7.5l-3.874 5.281L19.208 7.5c-2.842 5.246-2.632 15.806 7.042 17.622V42.5h5.212c6.359 0 12.288-5.155 12.288-11.519v-9.009l-14 13z"/><path d="M18 20h20v4H18zM20 26h16v2H20z"/></symbol><symbol viewBox="0 0 56 48" id="icon-feature-full-center-top"><path d="M54 5v38H2V5h52m2-2H0v42h56V3z"/><path opacity=".35" d="M22.75 42.332c-5.429-.927-10.5-5.653-10.5-11.347v-9.009l10.5 9.524v10.832zm7-7.36v-9.849C39.354 23.32 39.889 12.894 36.967 7.5l-4.802 5.281L28.024 7.5l-3.874 5.281L19.208 7.5c-2.842 5.246-2.632 15.806 7.042 17.622V42.5h5.212c6.359 0 12.288-5.155 12.288-11.519v-9.009l-14 13z"/><path d="M18 10.875h20v4H18zM20 16.875h16v2H20z"/></symbol><symbol viewBox="0 0 56 48" id="icon-feature-full-left-bottom"><path d="M54 5v38H2V5h52m2-2H0v42h56V3z"/><path opacity=".35" d="M30.25 42.332c-5.429-.927-10.5-5.653-10.5-11.347v-9.009l10.5 9.524v10.832zm7-7.36v-9.849C46.854 23.32 47.389 12.894 44.467 7.5l-4.802 5.281L35.524 7.5l-3.874 5.281L26.708 7.5c-2.842 5.246-2.632 15.806 7.042 17.622V42.5h5.212c6.359 0 12.288-5.155 12.288-11.519v-9.009l-14 13z"/><path d="M7 29h20v4H7zM7 35h16v2H7z"/></symbol><symbol viewBox="0 0 56 48" id="icon-feature-full-left-center"><path d="M54 5v38H2V5h52m2-2H0v42h56V3z"/><path opacity=".35" d="M30.25 42.332c-5.429-.927-10.5-5.653-10.5-11.347v-9.009l10.5 9.524v10.832zm7-7.36v-9.849C46.854 23.32 47.389 12.894 44.467 7.5l-4.802 5.281L35.524 7.5l-3.874 5.281L26.708 7.5c-2.842 5.246-2.632 15.806 7.042 17.622V42.5h5.212c6.359 0 12.288-5.155 12.288-11.519v-9.009l-14 13z"/><path d="M7 20h20v4H7zM7 26h16v2H7z"/></symbol><symbol viewBox="0 0 56 48" id="icon-feature-full-left-top"><path d="M54 5v38H2V5h52m2-2H0v42h56V3z"/><path opacity=".35" d="M30.25 42.332c-5.429-.927-10.5-5.653-10.5-11.347v-9.009l10.5 9.524v10.832zm7-7.36v-9.849C46.854 23.32 47.389 12.894 44.467 7.5l-4.802 5.281L35.524 7.5l-3.874 5.281L26.708 7.5c-2.842 5.246-2.632 15.806 7.042 17.622V42.5h5.212c6.359 0 12.288-5.155 12.288-11.519v-9.009l-14 13z"/><path d="M7 11h20v4H7zM7 17h16v2H7z"/></symbol><symbol viewBox="0 0 56 48" id="icon-feature-full-right-bottom"><path d="M54 5v38H2V5h52m2-2H0v42h56V3z"/><path opacity=".35" d="M15 42.332c-5.429-.928-10.5-5.653-10.5-11.347v-9.009L15 31.5v10.832zm7-7.36v-9.849C31.604 23.32 32.139 12.894 29.217 7.5l-4.802 5.281L20.274 7.5 16.4 12.782 11.458 7.5C8.616 12.747 8.826 23.306 18.5 25.122V42.5h5.212C30.071 42.5 36 37.345 36 30.981v-9.009l-14 13z"/><path d="M29 29h20v4H29zM33 35h16v2H33z"/></symbol><symbol viewBox="0 0 56 48" id="icon-feature-full-right-center"><path d="M54 5v38H2V5h52m2-2H0v42h56V3z"/><path opacity=".35" d="M15 42.332c-5.429-.928-10.5-5.653-10.5-11.347v-9.009L15 31.5v10.832zm7-7.36v-9.849C31.604 23.32 32.139 12.894 29.217 7.5l-4.802 5.281L20.274 7.5 16.4 12.782 11.458 7.5C8.616 12.747 8.826 23.306 18.5 25.122V42.5h5.212C30.071 42.5 36 37.345 36 30.981v-9.009l-14 13z"/><path d="M29 20h20v4H29zM33 26h16v2H33z"/></symbol><symbol viewBox="0 0 56 48" id="icon-feature-full-right-top"><path d="M54 5v38H2V5h52m2-2H0v42h56V3z"/><path opacity=".35" d="M15 42.332c-5.429-.928-10.5-5.653-10.5-11.347v-9.009L15 31.5v10.832zm7-7.36v-9.849C31.604 23.32 32.139 12.894 29.217 7.5l-4.802 5.281L20.274 7.5 16.4 12.782 11.458 7.5C8.616 12.747 8.826 23.306 18.5 25.122V42.5h5.212C30.071 42.5 36 37.345 36 30.981v-9.009l-14 13z"/><path d="M29 10h20v4H29zM33 16h16v2H33z"/></symbol><symbol viewBox="0 0 56 48" id="icon-feature-left-bottom"><path d="M7 24.907h24v4H7zM7 30.907h20v2H7zM7 34.907h18v2H7z"/><path d="M54 5v38H2V5h52m2-2H0v42h56V3z"/><g><path d="M41 20.952c-1.551-.265-3-1.615-3-3.242v-2.574l3 2.721v3.095zm2-2.103v-2.814c2.744-.515 2.897-3.494 2.062-5.035l-1.372 1.509L42.507 11 41.4 12.509 39.988 11c-.812 1.499-.752 4.516 2.012 5.035V21h1.489C45.306 21 47 19.527 47 17.709v-2.574l-4 3.714zM41 36.859c-1.551-.265-3-1.615-3-3.242v-2.574l3 2.721v3.095zm2-2.103v-2.814c2.744-.515 2.897-3.494 2.062-5.035l-1.372 1.509-1.183-1.509-1.107 1.509-1.412-1.509c-.812 1.499-.752 4.516 2.012 5.035v4.965h1.489c1.817 0 3.511-1.473 3.511-3.291v-2.574l-4 3.714z"/></g></symbol><symbol viewBox="0 0 56 48" id="icon-feature-left-center"><path d="M7 17.954h24v4H7zM7 23.954h20v2H7zM7 27.954h18v2H7z"/><path d="M54 5v38H2V5h52m2-2H0v42h56V3z"/><g><path d="M41 20.952c-1.551-.265-3-1.615-3-3.242v-2.574l3 2.721v3.095zm2-2.103v-2.814c2.744-.515 2.897-3.494 2.062-5.035l-1.372 1.509L42.507 11 41.4 12.509 39.988 11c-.812 1.499-.752 4.516 2.012 5.035V21h1.489C45.306 21 47 19.527 47 17.709v-2.574l-4 3.714zM41 36.859c-1.551-.265-3-1.615-3-3.242v-2.574l3 2.721v3.095zm2-2.103v-2.814c2.744-.515 2.897-3.494 2.062-5.035l-1.372 1.509-1.183-1.509-1.107 1.509-1.412-1.509c-.812 1.499-.752 4.516 2.012 5.035v4.965h1.489c1.817 0 3.511-1.473 3.511-3.291v-2.574l-4 3.714z"/></g></symbol><symbol viewBox="0 0 56 48" id="icon-feature-left-top"><path d="M7 11h24v4H7zM7 17h20v2H7zM7 21h18v2H7z"/><path d="M54 5v38H2V5h52m2-2H0v42h56V3z"/><g><path d="M41 20.952c-1.551-.265-3-1.615-3-3.242v-2.574l3 2.721v3.095zm2-2.103v-2.814c2.744-.515 2.897-3.494 2.062-5.035l-1.372 1.509L42.507 11 41.4 12.509 39.988 11c-.812 1.499-.752 4.516 2.012 5.035V21h1.489C45.306 21 47 19.527 47 17.709v-2.574l-4 3.714zM41 36.859c-1.551-.265-3-1.615-3-3.242v-2.574l3 2.721v3.095zm2-2.103v-2.814c2.744-.515 2.897-3.494 2.062-5.035l-1.372 1.509-1.183-1.509-1.107 1.509-1.412-1.509c-.812 1.499-.752 4.516 2.012 5.035v4.965h1.489c1.817 0 3.511-1.473 3.511-3.291v-2.574l-4 3.714z"/></g></symbol><symbol viewBox="0 0 56 48" id="icon-feature-right-bottom"><path d="M25 24.907h24v4H25zM25 30.907h20v2H25zM25 34.907h18v2H25z"/><path d="M54 5v38H2V5h52m2-2H0v42h56V3z"/><g><path d="M12 20.952c-1.551-.265-3-1.615-3-3.242v-2.574l3 2.721v3.095zm2-2.103v-2.814c2.744-.515 2.897-3.494 2.062-5.035l-1.372 1.509L13.507 11 12.4 12.509 10.988 11c-.812 1.499-.752 4.516 2.012 5.035V21h1.489C16.306 21 18 19.527 18 17.709v-2.574l-4 3.714zM12 36.859c-1.551-.265-3-1.615-3-3.242v-2.574l3 2.721v3.095zm2-2.103v-2.814c2.744-.515 2.897-3.494 2.062-5.035l-1.372 1.509-1.183-1.509-1.107 1.509-1.412-1.509c-.812 1.499-.752 4.516 2.012 5.035v4.965h1.489c1.817 0 3.511-1.473 3.511-3.291v-2.574l-4 3.714z"/></g></symbol><symbol viewBox="0 0 56 48" id="icon-feature-right-center"><path d="M25 17.954h24v4H25zM25 23.954h20v2H25zM25 27.954h18v2H25z"/><path d="M54 5v38H2V5h52m2-2H0v42h56V3z"/><g><path d="M12 20.952c-1.551-.265-3-1.615-3-3.242v-2.574l3 2.721v3.095zm2-2.103v-2.814c2.744-.515 2.897-3.494 2.062-5.035l-1.372 1.509L13.507 11 12.4 12.509 10.988 11c-.812 1.499-.752 4.516 2.012 5.035V21h1.489C16.306 21 18 19.527 18 17.709v-2.574l-4 3.714zM12 36.859c-1.551-.265-3-1.615-3-3.242v-2.574l3 2.721v3.095zm2-2.103v-2.814c2.744-.515 2.897-3.494 2.062-5.035l-1.372 1.509-1.183-1.509-1.107 1.509-1.412-1.509c-.812 1.499-.752 4.516 2.012 5.035v4.965h1.489c1.817 0 3.511-1.473 3.511-3.291v-2.574l-4 3.714z"/></g></symbol><symbol viewBox="0 0 56 48" id="icon-feature-right-top"><path d="M25 11h24v4H25zM25 17h20v2H25zM25 21h18v2H25z"/><path d="M54 5v38H2V5h52m2-2H0v42h56V3z"/><path d="M12 20.952c-1.551-.265-3-1.615-3-3.242v-2.574l3 2.721v3.095zm2-2.103v-2.814c2.744-.515 2.897-3.494 2.062-5.035l-1.372 1.509L13.507 11 12.4 12.509 10.988 11c-.812 1.499-.752 4.516 2.012 5.035V21h1.489C16.306 21 18 19.527 18 17.709v-2.574l-4 3.714zM12 36.859c-1.551-.265-3-1.615-3-3.242v-2.574l3 2.721v3.095zm2-2.103v-2.814c2.744-.515 2.897-3.494 2.062-5.035l-1.372 1.509-1.183-1.509-1.107 1.509-1.412-1.509c-.812 1.499-.752 4.516 2.012 5.035v4.965h1.489c1.817 0 3.511-1.473 3.511-3.291v-2.574l-4 3.714z"/></symbol><symbol viewBox="0 0 56 48" id="icon-feature-top"><path d="M11 11h34v4H11zM15 17h26v2H15z"/><path d="M54 5v38H2V5h52m2-2H0v42h56V3z"/><path d="M33 35.952c-1.551-.265-3-1.615-3-3.242v-2.574l3 2.721v3.095zm2-2.103v-2.814c2.744-.515 2.897-3.494 2.062-5.035l-1.372 1.509L34.507 26 33.4 27.509 31.988 26c-.812 1.499-.752 4.516 2.012 5.035V36h1.489C37.306 36 39 34.527 39 32.709v-2.574l-4 3.714zM19 35.952c-1.551-.265-3-1.615-3-3.242v-2.574l3 2.721v3.095zm2-2.103v-2.814c2.744-.515 2.897-3.494 2.062-5.035l-1.372 1.509L20.507 26 19.4 27.509 17.988 26c-.812 1.499-.752 4.516 2.012 5.035V36h1.489C23.306 36 25 34.527 25 32.709v-2.574l-4 3.714z"/></symbol><symbol viewBox="0 0 24 24" id="icon-fill-stroke-both"><path d="M5.5 7.588c2.426 0 4.4 1.974 4.4 4.4s-1.974 4.4-4.4 4.4-4.4-1.974-4.4-4.4 1.974-4.4 4.4-4.4m0-1.1a5.5 5.5 0 1 0 0 11 5.5 5.5 0 1 0 0-11z"/><circle cx="18.5" cy="11.988" r="5.5"/></symbol><symbol viewBox="0 0 24 24" id="icon-fill-stroke-fill"><path opacity=".35" d="M5.5 7.588c2.426 0 4.4 1.974 4.4 4.4s-1.974 4.4-4.4 4.4-4.4-1.974-4.4-4.4 1.974-4.4 4.4-4.4m0-1.1a5.5 5.5 0 1 0 0 11 5.5 5.5 0 1 0 0-11z"/><circle cx="18.5" cy="11.988" r="5.5"/></symbol><symbol viewBox="0 0 24 24" id="icon-fill-stroke-none"><path opacity=".35" d="M5.5 7.588c2.426 0 4.4 1.974 4.4 4.4s-1.974 4.4-4.4 4.4-4.4-1.974-4.4-4.4 1.974-4.4 4.4-4.4m0-1.1a5.5 5.5 0 1 0 0 11 5.5 5.5 0 1 0 0-11z"/><circle cx="18.5" cy="11.988" r="5.5" opacity=".35"/></symbol><symbol viewBox="0 0 24 24" id="icon-fill-stroke-stroke"><path d="M5.5 7.588c2.426 0 4.4 1.974 4.4 4.4s-1.974 4.4-4.4 4.4-4.4-1.974-4.4-4.4 1.974-4.4 4.4-4.4m0-1.1a5.5 5.5 0 1 0 0 11 5.5 5.5 0 1 0 0-11z"/><circle cx="18.5" cy="11.988" r="5.5" opacity=".35"/></symbol><symbol viewBox="0 0 24 24" id="icon-flag"><path d="M4 24H2V0h2v24zM22 2.613s-1.621 1.43-3.754 1.43c-3.36 0-3.436-2.895-7.337-2.895-2.108 0-4.075.98-4.909 1.694v12.085c1.184-.819 2.979-1.681 4.923-1.681 3.684 0 4.201 2.754 7.484 2.754C20.529 16 22 14.641 22 14.641V2.613z"/></symbol><symbol viewBox="0 0 24 24" id="icon-folder"><path d="M7.972 2H1l.714 5h2.021l-.429-3H7c1.112 1.388 1.952 2 4.277 2h9.283l-.2 1h2.04l.6-3H11.277c-1.978 0-2.041-.417-3.305-2zM24 9H0l2 13h20l2-13z"/></symbol><symbol viewBox="0 0 24 24" id="icon-fullscreen"><path d="M6.426 10.668L2.879 7.121 0 10V0h10L7.121 2.879l3.547 3.547-4.242 4.242zm11.148 2.664l3.547 3.547L24 14v10H14l2.879-2.879-3.547-3.547 4.242-4.242zm-6.906 4.242l-3.547 3.547L10 24H0V14l2.879 2.879 3.547-3.547 4.242 4.242zm2.664-11.148l3.547-3.547L14 0h10v10l-2.879-2.879-3.547 3.547-4.242-4.242z"/></symbol><symbol viewBox="0 0 24 24" id="icon-fullscreen-off"><path d="M16.586 19.414L14 22v-8h8l-2.586 2.586L24 21.172 21.172 24l-4.586-4.586zM2.828 0L0 2.828l4.586 4.586L2 10h8V2L7.414 4.586 2.828 0zm16.586 7.414L22 10h-8V2l2.586 2.586L21.172 0 24 2.828l-4.586 4.586zM0 21.172L2.828 24l4.586-4.586L10 22v-8H2l2.586 2.586L0 21.172z"/></symbol><symbol viewBox="0 0 24 24" id="icon-fullscreen-on"><path d="M21.414 18.586L24 16v8h-8l2.586-2.586-5.172-5.172 2.828-2.828 5.172 5.172zm-13.656-8l2.828-2.828-5.172-5.172L8 0H0v8l2.586-2.586 5.172 5.172zm10.828-8L16 0h8v8l-2.586-2.586-5.172 5.172-2.828-2.828 5.172-5.172zm-8 13.656l-2.828-2.828-5.172 5.172L0 16v8h8l-2.586-2.586 5.172-5.172z"/></symbol><symbol viewBox="0 0 24 24" id="icon-gear"><path d="M24 13.616v-3.232c-1.651-.587-2.694-.752-3.219-2.019v-.001c-.527-1.271.1-2.134.847-3.707l-2.285-2.285c-1.561.742-2.433 1.375-3.707.847h-.001C14.366 2.693 14.2 1.643 13.616 0h-3.232c-.582 1.635-.749 2.692-2.019 3.219h-.001c-1.271.528-2.132-.098-3.707-.847L2.372 4.657c.745 1.568 1.375 2.434.847 3.707C2.692 9.635 1.635 9.802 0 10.384v3.232c1.632.58 2.692.749 3.219 2.019.53 1.282-.114 2.166-.847 3.707l2.285 2.286c1.562-.743 2.434-1.375 3.707-.847h.001c1.27.526 1.436 1.579 2.019 3.219h3.232c.582-1.636.75-2.69 2.027-3.222h.001c1.262-.524 2.12.101 3.698.851l2.285-2.286c-.744-1.563-1.375-2.433-.848-3.706.527-1.271 1.588-1.44 3.221-2.021zM12 16a4 4 0 1 1 0-8 4 4 0 0 1 0 8z"/></symbol><symbol viewBox="0 0 56 48" id="icon-header-center"><path d="M2 4h52v5H2zM10 19.5h36v5H10zM13 27.5h30v3H13z"/><path d="M54 6v36H2V6h52m2-2H0v40h56V4z"/></symbol><symbol viewBox="0 0 56 48" id="icon-header-left"><path d="M2 4h52v5H2zM7 19.5h32v5H7zM7 27.5h26v3H7z"/><path d="M54 6v36H2V6h52m2-2H0v40h56V4z"/></symbol><symbol viewBox="0 0 24 24" id="icon-language"><path d="M14.748 11.191c.03.473.084.909.158 1.298-.998.183-1.038-.801-.158-1.298zm-7.461.274h1.708l-.856-2.451-.852 2.451zM24 11.007c0 6.052-6.732 11.705-15.968 9.458C6.354 21.492 2.655 22.53.054 23c.971-1.912 2.048-4.538 1.993-6.368A8.817 8.817 0 0 1 0 11.007C0 5.226 5.662 1 12 1c6.299 0 12 4.195 12 10.007zM11.251 14l-2.47-6.5H7.479L5 14h1.392l.535-1.5h2.438l.537 1.5h1.349zm6.837-3.937c.062-.243.1-.426.135-.605l-1.1-.214-.109.5a4.814 4.814 0 0 0-1.166-.021c.009-.268.025-.531.049-.784h1.229V7.897h-1.081c.054-.265.099-.424.144-.575L15.114 7a7.298 7.298 0 0 0-.211.897h-1.226v1.042h1.092c-.028.337-.046.686-.051 1.038C13.512 10.42 13 11.265 13 12.03c0 .904.714 1.7 1.842 1.598 1.401-.128 2.337-1.186 2.885-2.487.567.327.805.876.591 1.385-.197.471-.78.919-1.892.896v1.121c1.234.019 2.448-.45 2.925-1.583.464-1.107-.067-2.317-1.263-2.897zm-2.144 1.841c.293-.303.522-.688.697-1.075a3.755 3.755 0 0 0-.79.021c.017.378.048.731.093 1.054z"/></symbol><symbol viewBox="0 0 24 24" id="icon-magic-1"><path d="M4.908 2.081L2.08 4.909 21.172 24 24 21.172 4.908 2.081zm17.678 19.091l-1.414 1.414L7.029 8.444 8.443 7.03l14.143 14.142zM8.76 2.599a3.87 3.87 0 0 1 2.572 2.573 3.877 3.877 0 0 1 2.573-2.573A3.875 3.875 0 0 1 11.332.026 3.87 3.87 0 0 1 8.76 2.599zM3.412 9.553A5.132 5.132 0 0 1 0 12.966a5.13 5.13 0 0 1 3.412 3.411 5.133 5.133 0 0 1 3.412-3.411 5.138 5.138 0 0 1-3.412-3.413zm9.553-3.165a2.736 2.736 0 0 1 1.819 1.82 2.738 2.738 0 0 1 1.819-1.82 2.738 2.738 0 0 1-1.819-1.82 2.74 2.74 0 0 1-1.819 1.82zM17.391 0a3.126 3.126 0 0 1-2.075 2.076 3.128 3.128 0 0 1 2.077 2.077 3.13 3.13 0 0 1 2.074-2.077A3.13 3.13 0 0 1 17.391 0z"/></symbol><symbol viewBox="0 0 24 24" id="icon-magic-2"><path d="M8.617 5.795L5.789 8.623 21.171 24 24 21.176 8.617 5.795zm2.119 6.362L7.203 8.622l1.412-1.414 3.535 3.535-1.414 1.414zm-5.021 3.439l-1.344-4.363L0 9.906l3.111-3.35-1.035-4.453 4.455 1.02L9.869 0l1.344 4.363 4.371 1.328-2.043 2.199-.708-.708.929-1-2.84-.862-.508-.154-.157-.508-.873-2.834-2.169 2.03-.389.363-.517-.119-2.897-.662.674 2.894.121.518-.363.39-2.022 2.176 2.839.862.509.154.156.508.873 2.835.987-.923.708.708-2.179 2.038z"/></symbol><symbol viewBox="0 0 24 24" id="icon-magic-3"><path d="M6.215 15.873a4.673 4.673 0 0 0-3.107 3.107A4.682 4.682 0 0 0 0 15.872a4.672 4.672 0 0 0 3.106-3.106 4.684 4.684 0 0 0 3.109 3.107zM3.724 1.723A2.588 2.588 0 0 1 2.001 0 2.593 2.593 0 0 1 .279 1.723a2.6 2.6 0 0 1 1.722 1.722 2.587 2.587 0 0 1 1.723-1.722zm1.837 2.182l.732.732c1.631-1.359 3.789-2.329 5.729-2.337-1.833.458-3.645 1.663-4.947 3.12l1.653 1.653C12.488 2.708 19.573 1.587 24 4 17.451-1.092 9.415.713 5.561 3.905zM3.814 4.987L7.35 8.522l12.664 12.652L17.188 24 .985 7.815l2.829-2.828zm-.002 1.412L2.398 7.814l3.537 3.537L7.35 9.937 3.812 6.399zm6.408 2.123a3.164 3.164 0 0 1 2.101 2.101 3.168 3.168 0 0 1 2.101-2.101 3.166 3.166 0 0 1-2.101-2.101 3.162 3.162 0 0 1-2.101 2.101z"/></symbol><symbol viewBox="0 0 24 24" id="icon-magic-4"><path d="M12.108 11.488c.263.168.392.225.691.306-.237.244-1.141.244-1.379 0 .29-.086.429-.148.688-.306zm3.988-10.37c-.505 1.013-1.096 2.36-1.375 3.803.307.255.584.56.816.92.174-1.722.955-3.413 1.539-4.554.351-.686.06-1.287-.6-1.287-.32 0-.726.141-1.188.48-1.156.85-2.057 2.033-2.681 3.519.321.042.634.122.933.235.862-1.938 2.119-2.89 2.556-3.116zM8.573 5.852c.231-.36.507-.667.817-.925-.279-1.446-.871-2.795-1.377-3.809.657.34 1.796 1.416 2.557 3.118.299-.113.612-.193.932-.236-.624-1.487-1.525-2.67-2.681-3.52C8.359.14 7.953 0 7.634 0c-.661 0-.952.603-.601 1.287.585 1.143 1.368 2.838 1.54 4.565zm8.719 5.186c-.125.501-.342.97-.646 1.396.709.468.473 1.112-.664 1.514-2.229.788-5.741.8-7.965 0-1.152-.414-1.339-1.097-.573-1.564a4.077 4.077 0 0 1-.62-1.397C5.717 11.471 5 12.154 5 13.039c0 4.152 14 4.154 14 0 0-.853-.668-1.519-1.708-2.001zM6.48 10.225a7.631 7.631 0 0 1 1.202-.165c.005-.3.056-.595.151-.88a6.7 6.7 0 0 0-.806-.148c-.165-.02-.138-.279.029-.26.291.035.582.09.871.163.15-.348.366-.677.643-.972.01-.81.313-1.581.867-2.192.663-.732 1.618-1.153 2.622-1.153s1.959.42 2.622 1.153a3.31 3.31 0 0 1 .866 2.192c.284.303.504.639.654.997.321-.085.646-.148.969-.187.166-.02.193.24.029.26a6.855 6.855 0 0 0-.906.174c.089.275.137.56.143.849.465.024.917.081 1.31.171.161.037.11.293-.054.256a7.666 7.666 0 0 0-1.263-.166c-.142 2.047-2.261 3.337-4.37 3.337-2.185 0-4.228-1.35-4.369-3.331-.411.026-.807.08-1.155.159-.164.036-.218-.22-.055-.257zm2.302.648c.4-.164.805-.287 1.169-.347l-.004-.076c-.4-.08-.851-.127-1.312-.143.02.193.07.383.147.566zm6.455.2a5.258 5.258 0 0 0-1.004-.289c-.067.312-.226.617-.475.784-.443.278-1.199-.081-1.647-.348-.452.269-1.202.627-1.647.348-.25-.168-.409-.474-.475-.783a5.401 5.401 0 0 0-1.089.323c.536.933 1.769 1.562 3.159 1.562 1.294 0 2.612-.57 3.178-1.597zm-4.384.105c.198 0 .459-.097.688-.206a.593.593 0 0 0 .332-.538.637.637 0 0 0-.312-.551c-.271-.156-.574-.294-.768-.294-.245 0-.375.496-.376.783-.001.322.126.806.436.806zm1.827-.206c.229.109.491.206.688.206.309 0 .438-.483.436-.806-.001-.346-.158-.783-.376-.783-.195 0-.498.138-.769.294a.636.636 0 0 0-.311.55c0 .233.13.443.332.539zm2.801-.661a7.96 7.96 0 0 0-1.208.14l-.004.074c.337.056.709.165 1.081.311.068-.17.113-.346.131-.525zm-.086-.809a7.258 7.258 0 0 0-1.142.582l.013.102a8.387 8.387 0 0 1 1.226-.136 1.939 1.939 0 0 0-.097-.548zm-6.558-.277c.415.162.816.36 1.192.591.083-.262.241-.511.455-.644.233-.129.524-.068.773.024.114-.215.379-.589.861-.589.473 0 .746.363.867.581.244-.087.526-.142.753-.016.215.135.373.385.455.646.35-.215.722-.401 1.106-.557-.209-.439-.507-.697-.71-.89.1-1.748-1.116-2.772-2.529-2.772-1.426 0-2.628 1.04-2.529 2.772-.203.192-.485.437-.694.854zm-.211.82c.465.014.922.061 1.329.139l.013-.103a7.282 7.282 0 0 0-1.233-.617 1.91 1.91 0 0 0-.109.581zm4.605-1.626c.292 0 .53-.326.53-.729s-.238-.729-.53-.729c-.293 0-.53.326-.53.729s.237.729.53.729zm4.598 14.383C16.838 23.608 14.45 24 12.041 24c-2.458 0-4.938-.408-5.975-1.198 1.097-2.361.859-4.82.222-6.709 2.945 1.416 8.422 1.403 11.318-.054-.672 1.995-.884 4.276.223 6.763zm-1.438-.315c-.433-1.181-.731-3.436-.347-4.99l-.805.185c-.271 1.297-.117 3.554.387 5.014.18.039.626-.082.765-.209zM10.96 8.419c.293 0 .53-.326.53-.729s-.237-.729-.53-.729-.53.326-.53.729.237.729.53.729z"/></symbol><symbol viewBox="0 0 24 24" id="icon-magnifier"><path d="M21.172 24l-7.387-7.387A8.945 8.945 0 0 1 9 18c-4.971 0-9-4.029-9-9s4.029-9 9-9 9 4.029 9 9a8.951 8.951 0 0 1-1.387 4.785L24 21.172 21.172 24zM9 16c3.859 0 7-3.14 7-7s-3.141-7-7-7-7 3.14-7 7 3.141 7 7 7z"/></symbol><symbol viewBox="0 0 24 24" id="icon-maximize"><path d="M24 13h-2v9h-9v2h11V13zM0 0h11v2H2v9H0V0zm20.622 7.621l-13 13L11 24H0V13.001l3.378 3.378 13-13L13 0h11v10.999l-3.378-3.378z"/></symbol><symbol viewBox="0 0 24 24" id="icon-menu"><path d="M13 6H0V2h13v4zm0 4H0v4h13v-4zm0 8H0v4h13v-4zm3-8l4 5.075L24 10h-8z"/></symbol><symbol viewBox="0 0 24 24" id="icon-menu-circle"><path d="M12 2c5.514 0 10 4.486 10 10s-4.486 10-10 10S2 17.514 2 12 6.486 2 12 2zm0-2C5.373 0 0 5.373 0 12s5.373 12 12 12 12-5.373 12-12S18.627 0 12 0zm6 17H6v-2h12v2zm0-4H6v-2h12v2zm0-4H6V7h12v2z"/></symbol><symbol viewBox="0 0 24 24" id="icon-minus"><path d="M0 9h24v6H0z"/></symbol><symbol viewBox="0 0 24 24" id="icon-move"><path d="M24 12l-6-5v4h-5V6h4l-5-6-5 6h4v5H6V7l-6 5 6 5v-4h5v5H7l5 6 5-6h-4v-5h5v4z"/></symbol><symbol viewBox="0 0 24 24" id="icon-paint-bucket"><path d="M22.381 0c-.344 0-.69.109-.986.334-.671.513-1.021 1.576-1.614 2.217-.77.828-2.231.449-3.564-.978-1.507 1.424-3.404 2.989-5.467 3.536L11.968 6.7c.559.096 1.375-.133 1.819-.543-.234.599-.65 1.054-1.239 1.304l.516.675c1.221 1.59-1.443 1.758-2.972 1.756-1.826 0-5.768-.391-5.768-1.391 0-1.111 4.627-1.631 5.895-1.611L8.958 5.146c-3.55.169-5.66 1.153-6.502 1.995-.293.293-.435.567-.435.782v1.059C.723 10.057-.002 11.32 0 12.579c-.001 1.165.603 2.147 1.684 2.764.704.402 1.682.666 2.887.666 1.271 0 2.797-.301 4.514-1.032a1.5 1.5 0 0 1 1.418-1.975A1.495 1.495 0 0 1 12 14.5c0 .829-.669 1.5-1.5 1.5a1.48 1.48 0 0 1-.774-.221c-1.8.801-3.554 1.229-5.155 1.229-.937 0-1.8-.148-2.554-.422l-.002 3.667c.001.63.268 1.237.802 1.772C3.973 23.18 6.377 24 10.043 24c3.908 0 6.945-.946 8.254-2.255.459-.459.703-.972.703-1.492V8.849a33.649 33.649 0 0 1 1.875-1.271c-1.047-1.694-1.059-3.22.009-3.729.768-.368 1.831-.442 2.479-.938.418-.32.637-.804.637-1.293C24 .726 23.281 0 22.381 0zM2.018 14.357c-.651-.435-1.01-1.04-1.009-1.779-.001-.729.361-1.501 1.012-2.219l-.003 3.998zM16 20.844a6.405 6.405 0 0 1-2 .562v-9.844a6.543 6.543 0 0 0 2-.516v9.798zm1.712-12.88l-2.751-3.541 1.29-.986L19.021 7l-1.309.964zm4.995-5.913a.535.535 0 0 1-.755-.1.538.538 0 0 1 .1-.758.54.54 0 0 1 .655.858z"/></symbol><symbol viewBox="0 0 24 24" id="icon-picture"><path d="M5 8.5a1.5 1.5 0 1 1 3.001.001A1.5 1.5 0 0 1 5 8.5zm9 .5l-2.519 4L9 11.04 5 17h14l-5-8zm8-4v14H2V5h20zm2-2H0v18h24V3z"/></symbol><symbol viewBox="0 0 24 24" id="icon-pin"><path d="M11 17h2v5l-2 2v-7zm3.571-12c0-2.903 2.36-3.089 2.429-5H7c.068 1.911 2.429 2.097 2.429 5C9.429 8.771 6 8.291 6 15h12c0-6.709-3.429-6.229-3.429-10z"/></symbol><symbol viewBox="0 0 24 24" id="icon-plus"><path d="M24 9h-9V0H9v9H0v6h9v9h6v-9h9z"/></symbol><symbol viewBox="0 0 24 24" id="icon-plus-2"><path d="M24 10H14V0h-4v10H0v4h10v10h4V14h10z"/></symbol><symbol viewBox="0 0 24 24" id="icon-resize-2"><path d="M16 0v2H8V0h8zm2 2h4v4h2V0h-6v2zM2 6V2h4V0H0v6h2zm22 2h-2v8h2V8zm-2 10v4h-4v2h6v-6h-2zM0 24h16V8H0v16z"/></symbol><symbol viewBox="0 0 24 24" id="icon-round-square"><path d="M24 3a3 3 0 0 0-3-3H3a3 3 0 0 0-3 3v18a3 3 0 0 0 3 3h18a3 3 0 0 0 3-3V3z"/></symbol><symbol viewBox="0 0 24 24" id="icon-round-square-2"><path d="M24 5a5 5 0 0 0-5-5H5a5 5 0 0 0-5 5v14a5 5 0 0 0 5 5h14a5 5 0 0 0 5-5V5z"/></symbol><symbol viewBox="0 0 24 24" id="icon-scroll"><path d="M12 0a8 8 0 0 0-8 8v8a8 8 0 0 0 16 0V8a8 8 0 0 0-8-8zm0 7.5a1.5 1.5 0 1 1 0-3 1.5 1.5 0 0 1 0 3z"/></symbol><symbol viewBox="0 0 56 48" id="icon-services-center"><path d="M11 11h34v4H11zM15 17h26v2H15z"/><path d="M54 5v38H2V5h52m2-2H0v42h56V3z"/><path d="M14.5 28.976c-.775-.133-1.5-.808-1.5-1.621v-1.287l1.5 1.36v1.548zm1-1.052v-1.407c1.372-.257 1.448-1.747 1.031-2.518l-.686.754-.592-.753-.553.754-.706-.754c-.406.749-.376 2.258 1.006 2.518V29h.745c.908 0 1.756-.736 1.756-1.645v-1.287L15.5 27.924zM27.5 28.976c-.775-.133-1.5-.808-1.5-1.621v-1.287l1.5 1.36v1.548zm1-1.052v-1.407c1.372-.257 1.448-1.747 1.031-2.518l-.686.754-.592-.753-.553.754-.706-.754c-.406.749-.376 2.258 1.006 2.518V29h.745c.908 0 1.756-.736 1.756-1.645v-1.287L28.5 27.924zM40.5 28.976c-.775-.133-1.5-.808-1.5-1.621v-1.287l1.5 1.36v1.548zm1-1.052v-1.407c1.372-.257 1.448-1.747 1.031-2.518l-.686.754-.592-.753-.553.754-.706-.754c-.406.749-.376 2.258 1.006 2.518V29h.745c.908 0 1.756-.736 1.756-1.645v-1.287L41.5 27.924zM11 30.5h8v2h-8zM24 30.5h8v2h-8zM37 30.5h8v2h-8zM10 34h10v1H10zM23 34h10v1H23zM36 34h10v1H36zM11 36h8v1h-8zM24 36h8v1h-8zM37 36h8v1h-8z"/></symbol><symbol viewBox="0 0 56 48" id="icon-services-center-image"><path d="M11 11h34v4H11zM15 17h26v2H15z"/><path d="M54 5v38H2V5h52m2-2H0v42h56V3z"/><path d="M11 30.5h8v2h-8zM24 30.5h8v2h-8zM37 30.5h8v2h-8zM10 34h10v1H10zM23 34h10v1H23zM36 34h10v1H36zM11 36h8v1h-8zM24 36h8v1h-8zM37 36h8v1h-8zM10 23.5v6h10v-6H10zm9.5.786v4.427L15.515 26.5l3.985-2.214zM15 26.214L11.015 24h7.969L15 26.214zm-.515.286L10.5 28.714v-4.427l3.985 2.213zm.515.286L18.985 29h-7.969L15 26.786zM23 23.5v6h10v-6H23zm9.5.786v4.427L28.515 26.5l3.985-2.214zM28 26.214L24.015 24h7.969L28 26.214zm-.515.286L23.5 28.714v-4.427l3.985 2.213zm.515.286L31.985 29h-7.969L28 26.786zM36 23.5v6h10v-6H36zm9.5.786v4.427L41.515 26.5l3.985-2.214zM41 26.214L37.015 24h7.969L41 26.214zm-.515.286L36.5 28.714v-4.427l3.985 2.213zm.515.286L44.985 29h-7.969L41 26.786z"/></symbol><symbol viewBox="0 0 56 48" id="icon-services-left"><path d="M11 11h34v4H11zM15 17h26v2H15z"/><path d="M54 5v38H2V5h52m2-2H0v42h56V3z"/><path d="M9.5 27.976c-.776-.133-1.5-.808-1.5-1.621v-1.287l1.5 1.36v1.548zm1-1.052v-1.407c1.372-.257 1.448-1.747 1.031-2.518l-.686.754-.592-.753-.553.754L8.994 23c-.406.749-.376 2.258 1.006 2.518V28h.745c.908 0 1.756-.736 1.756-1.645v-1.287L10.5 26.924zM14 23h9v2h-9zM14 26.5h12v1H14zM14 28.5h10v1H14zM31.5 27.976c-.775-.133-1.5-.808-1.5-1.621v-1.287l1.5 1.36v1.548zm1-1.052v-1.407c1.372-.257 1.448-1.747 1.031-2.518l-.686.754-.592-.753-.553.754-.706-.754c-.406.749-.376 2.258 1.006 2.518V28h.745c.908 0 1.756-.736 1.756-1.645v-1.287L32.5 26.924zM36 23h9v2h-9zM36 26.5h12v1H36zM36 28.5h10v1H36zM9.5 37.476c-.776-.133-1.5-.808-1.5-1.621v-1.287l1.5 1.36v1.548zm1-1.052v-1.407c1.372-.257 1.448-1.747 1.031-2.518l-.686.754-.592-.753-.553.754-.706-.754c-.406.749-.376 2.258 1.006 2.518V37.5h.745c.908 0 1.756-.736 1.756-1.645v-1.287L10.5 36.424zM14 32.5h9v2h-9zM14 36h12v1H14zM14 38h10v1H14zM31.5 37.476c-.775-.133-1.5-.808-1.5-1.621v-1.287l1.5 1.36v1.548zm1-1.052v-1.407c1.372-.257 1.448-1.747 1.031-2.518l-.686.754-.592-.753-.553.754-.706-.754c-.406.749-.376 2.258 1.006 2.518V37.5h.745c.908 0 1.756-.736 1.756-1.645v-1.287L32.5 36.424zM36 32.5h9v2h-9zM36 36h12v1H36zM36 38h10v1H36z"/></symbol><symbol viewBox="0 0 24 24" id="icon-square"><path d="M24 0H0v24h24V0z"/></symbol><symbol viewBox="0 0 24 24" id="icon-square-circle"><circle cx="16" cy="16" r="8"/><path d="M15.75 6c.084 0 .166.011.25.013V0H0v16h5.75c0-5.523 4.477-10 10-10z"/></symbol><symbol viewBox="0 0 24 24" id="icon-squares-2x2"><path d="M11 11H0V0h11v11zm13 0H13V0h11v11zM11 24H0V13h11v11zm13 0H13V13h11v11z"/></symbol><symbol viewBox="0 0 24 24" id="icon-text"><path d="M22 0H2v6h1.999c0-1.174.397-3 2.001-3h4v16.874C10 21.048 9.175 22 8 22H7v2h9.999v-2H16c-1.174 0-2-.952-2-2.126V3h4c1.649 0 2.02 1.826 2.02 3H22V0z"/></symbol><symbol viewBox="0 0 24 24" id="icon-text-shadow-1"><path d="M24 0H4v6h1.999c0-1.174.397-3 2.001-3h4v16.874C12 21.048 11.175 22 10 22H9v2h9.999v-2H18c-1.174 0-2-.952-2-2.126V3h4c1.649 0 2.02 1.826 2.02 3H24V0z"/><path opacity=".2" d="M10 22c1.175 0 2-.952 2-2.126V3H8v16.874C8 21.048 7.175 22 6 22H5v2h4v-2h1zM4 0H0v6h1.999c0-1.174.397-3 2.001-3V0zM18.02 6H20V3h-4c1.649 0 2.02 1.826 2.02 3z"/></symbol><symbol viewBox="0 0 24 24" id="icon-text-shadow-2"><path d="M24 0H4v6h1.999c0-1.174.397-3 2.001-3h4v16.874C12 21.048 11.175 22 10 22H9v2h9.999v-2H18c-1.174 0-2-.952-2-2.126V3h4c1.649 0 2.02 1.826 2.02 3H24V0z"/><path opacity=".32" d="M10 22c1.175 0 2-.952 2-2.126V3H8v16.874C8 21.048 7.175 22 6 22H5v2h4v-2h1zM4 0H0v6h1.999c0-1.174.397-3 2.001-3V0zM18.02 6H20V3h-4c1.649 0 2.02 1.826 2.02 3z"/></symbol><symbol viewBox="0 0 24 24" id="icon-text-shadow-3"><path d="M24 0H4v6h1.999c0-1.174.397-3 2.001-3h4v16.874C12 21.048 11.175 22 10 22H9v2h9.999v-2H18c-1.174 0-2-.952-2-2.126V3h4c1.649 0 2.02 1.826 2.02 3H24V0z"/><path opacity=".45" d="M10 22c1.175 0 2-.952 2-2.126V3H8v16.874C8 21.048 7.175 22 6 22H5v2h4v-2h1zM4 0H0v6h1.999c0-1.174.397-3 2.001-3V0zM18.02 6H20V3h-4c1.649 0 2.02 1.826 2.02 3z"/></symbol><symbol viewBox="0 0 24 24" id="icon-tools"><path d="M23.27 19.743L11.324 7.798a2.706 2.706 0 0 1-.783-2.115 5.278 5.278 0 0 0-1.529-4.146A5.248 5.248 0 0 0 5.289 0c-.507 0-1.015.072-1.505.216l3.17 3.17c.344 1.589-1.959 3.918-3.567 3.567L.218 3.783C.073 4.275 0 4.783 0 5.292a5.264 5.264 0 0 0 5.684 5.251 2.698 2.698 0 0 1 2.113.783L19.743 23.27a2.494 2.494 0 0 0 3.527-3.527zM21.5 22.5a1 1 0 1 1 0-2 1 1 0 0 1 0 2zM13.565 7.211l5.327-5.318a2.98 2.98 0 0 1 2.113-.877c.764 0 1.529.292 2.113.877a2.99 2.99 0 0 1 .009 4.235l-5.326 5.318-1.039-1.039 5.067-5.059a.43.43 0 0 0-.001-.609.43.43 0 0 0-.61-.001L16.15 9.796l-.89-.89 5.067-5.059a.432.432 0 0 0-.611-.611l-5.067 5.058-1.084-1.083zm-3.53 9.18l-5.227 5.185a3.276 3.276 0 0 0-.574.774l-.301.58-2.1 1.07L1 23.166l1.025-2.146.58-.302a3.22 3.22 0 0 0 .79-.558l5.227-5.185 1.413 1.416z"/></symbol><symbol viewBox="0 -8 40 40" id="icon-touch-move-down-3"><path d="M20 .5c1.93 0 3.5 1.57 3.5 3.5S21.93 7.5 20 7.5 16.5 5.93 16.5 4 18.07.5 20 .5M20-1a5 5 0 1 0 .001 10.001A5 5 0 0 0 20-1z"/><path d="M20-2c3.308 0 6 2.692 6 6s-2.692 6-6 6-6-2.692-6-6 2.692-6 6-6m0-1a7 7 0 1 0 0 14 7 7 0 0 0 0-14zM33 6.5c1.93 0 3.5 1.57 3.5 3.5s-1.57 3.5-3.5 3.5-3.5-1.57-3.5-3.5 1.57-3.5 3.5-3.5M33 5a5 5 0 1 0 .001 10.001A5 5 0 0 0 33 5z"/><path d="M33 4c3.308 0 6 2.692 6 6s-2.692 6-6 6-6-2.692-6-6 2.692-6 6-6m0-1a7 7 0 1 0 0 14 7 7 0 0 0 0-14zM7 7.509c1.93 0 3.5 1.57 3.5 3.5s-1.57 3.5-3.5 3.5-3.5-1.57-3.5-3.5 1.57-3.5 3.5-3.5m0-1.5a5 5 0 1 0 .001 10.001A5 5 0 0 0 7 6.01z"/><path d="M7 5.009c3.308 0 6 2.692 6 6s-2.692 6-6 6-6-2.692-6-6 2.692-6 6-6m0-1a7 7 0 1 0 0 14 7 7 0 0 0 0-14zM7.75 24.812V19h-1.5v5.812H3.811L7 28l3.189-3.188zM20.75 17.812V12h-1.5v5.812h-2.439L20 21l3.189-3.188zM33.75 23.812V18h-1.5v5.812h-2.439L33 27l3.189-3.188z"/></symbol><symbol viewBox="0 -8 40 40" id="icon-touch-move-up-3"><path d="M20 24.5c-1.93 0-3.5-1.57-3.5-3.5s1.57-3.5 3.5-3.5 3.5 1.57 3.5 3.5-1.57 3.5-3.5 3.5m0 1.5a5 5 0 1 0-.001-10.001A5 5 0 0 0 20 26z"/><path d="M20 27c-3.308 0-6-2.692-6-6s2.692-6 6-6 6 2.692 6 6-2.692 6-6 6m0 1a7 7 0 1 0 0-14 7 7 0 0 0 0 14zM7 18.5c-1.93 0-3.5-1.57-3.5-3.5s1.57-3.5 3.5-3.5 3.5 1.57 3.5 3.5-1.57 3.5-3.5 3.5M7 20a5 5 0 1 0-.001-10.001A5 5 0 0 0 7 20z"/><path d="M7 21c-3.308 0-6-2.692-6-6s2.692-6 6-6 6 2.692 6 6-2.692 6-6 6m0 1A7 7 0 1 0 7 8a7 7 0 0 0 0 14zM33 17.491c-1.93 0-3.5-1.57-3.5-3.5s1.57-3.5 3.5-3.5 3.5 1.57 3.5 3.5-1.57 3.5-3.5 3.5m0 1.5a5 5 0 1 0-.001-10.001A5 5 0 0 0 33 18.99z"/><path d="M33 19.991c-3.308 0-6-2.692-6-6s2.692-6 6-6 6 2.692 6 6-2.692 6-6 6m0 1a7 7 0 1 0 0-14 7 7 0 0 0 0 14zM32.25.188V6h1.5V.188h2.439L33-3 29.811.188zM19.25 7.188V13h1.5V7.188h2.439L20 4l-3.189 3.188zM6.25 1.188V7h1.5V1.188h2.439L7-2 3.811 1.188z"/></symbol><symbol viewBox="0 0 24 24" id="icon-trash"><path d="M3 6v18h18V6H3zm5 14a1 1 0 0 1-2 0V10a1 1 0 0 1 2 0v10zm5 0a1 1 0 0 1-2 0V10a1 1 0 0 1 2 0v10zm5 0a1 1 0 0 1-2 0V10a1 1 0 0 1 2 0v10zm4-18v2H2V2h5.711c.9 0 1.631-1.099 1.631-2h5.315c0 .901.73 2 1.631 2H22z"/></symbol><symbol viewBox="0 0 24 24" id="icon-up-down"><path d="M7 24l6-9H9V0H5v15H1l6 9z"/><path d="M17 0l-6 9h4v15h4V9h4l-6-9z"/></symbol><symbol viewBox="0 0 24 24" id="icon-upload"><path d="M19.479 10.092C19.267 6.141 16.006 3 12 3c-4.005 0-7.267 3.141-7.479 7.092A5.499 5.499 0 0 0 5.5 21h13a5.499 5.499 0 1 0 .979-10.908zM12 9l4 4h-3v4h-2v-4H8l4-4z"/></symbol><symbol viewBox="0 0 24 24" id="icon-upload-2"><path d="M8 10H3l9-10 9 10h-5v10H8V10zm8 12H8v2h8v-2z"/></symbol><symbol viewBox="0 0 24 24" id="icon-x"><path d="M24 20.188l-8.315-8.209 8.2-8.282L20.188 0l-8.212 8.318L3.666.115 0 3.781l8.321 8.24-8.206 8.313L3.781 24l8.237-8.318 8.285 8.203z"/></symbol><symbol viewBox="0 0 24 24" id="icon-x-2"><path d="M23.954 21.03l-9.184-9.095 9.092-9.174L21.03-.046l-9.09 9.179L2.764.045l-2.81 2.81L9.14 11.96.045 21.144l2.81 2.81 9.112-9.192 9.18 9.1z"/></symbol></svg>
